%TF.GenerationSoftware,KiCad,Pcbnew,9.0.3*%
%TF.CreationDate,2025-07-17T06:47:07+08:00*%
%TF.ProjectId,bongopad,626f6e67-6f70-4616-942e-6b696361645f,v1.1*%
%TF.SameCoordinates,Original*%
%TF.FileFunction,Legend,Top*%
%TF.FilePolarity,Positive*%
%FSLAX46Y46*%
G04 Gerber Fmt 4.6, Leading zero omitted, Abs format (unit mm)*
G04 Created by KiCad (PCBNEW 9.0.3) date 2025-07-17 06:47:07*
%MOMM*%
%LPD*%
G01*
G04 APERTURE LIST*
%ADD10C,0.200000*%
%ADD11C,0.150000*%
%ADD12C,0.010000*%
%ADD13C,0.100000*%
%ADD14C,0.120000*%
%ADD15C,1.397000*%
%ADD16R,1.752600X1.752600*%
%ADD17C,1.752600*%
G04 APERTURE END LIST*
D10*
X165696131Y-142003540D02*
X165853274Y-142055921D01*
X165853274Y-142055921D02*
X165905655Y-142108302D01*
X165905655Y-142108302D02*
X165958036Y-142213064D01*
X165958036Y-142213064D02*
X165958036Y-142370207D01*
X165958036Y-142370207D02*
X165905655Y-142474969D01*
X165905655Y-142474969D02*
X165853274Y-142527350D01*
X165853274Y-142527350D02*
X165748512Y-142579730D01*
X165748512Y-142579730D02*
X165329464Y-142579730D01*
X165329464Y-142579730D02*
X165329464Y-141479730D01*
X165329464Y-141479730D02*
X165696131Y-141479730D01*
X165696131Y-141479730D02*
X165800893Y-141532111D01*
X165800893Y-141532111D02*
X165853274Y-141584492D01*
X165853274Y-141584492D02*
X165905655Y-141689254D01*
X165905655Y-141689254D02*
X165905655Y-141794016D01*
X165905655Y-141794016D02*
X165853274Y-141898778D01*
X165853274Y-141898778D02*
X165800893Y-141951159D01*
X165800893Y-141951159D02*
X165696131Y-142003540D01*
X165696131Y-142003540D02*
X165329464Y-142003540D01*
X166586607Y-142579730D02*
X166481845Y-142527350D01*
X166481845Y-142527350D02*
X166429464Y-142474969D01*
X166429464Y-142474969D02*
X166377083Y-142370207D01*
X166377083Y-142370207D02*
X166377083Y-142055921D01*
X166377083Y-142055921D02*
X166429464Y-141951159D01*
X166429464Y-141951159D02*
X166481845Y-141898778D01*
X166481845Y-141898778D02*
X166586607Y-141846397D01*
X166586607Y-141846397D02*
X166743750Y-141846397D01*
X166743750Y-141846397D02*
X166848512Y-141898778D01*
X166848512Y-141898778D02*
X166900893Y-141951159D01*
X166900893Y-141951159D02*
X166953274Y-142055921D01*
X166953274Y-142055921D02*
X166953274Y-142370207D01*
X166953274Y-142370207D02*
X166900893Y-142474969D01*
X166900893Y-142474969D02*
X166848512Y-142527350D01*
X166848512Y-142527350D02*
X166743750Y-142579730D01*
X166743750Y-142579730D02*
X166586607Y-142579730D01*
X167424702Y-141846397D02*
X167424702Y-142579730D01*
X167424702Y-141951159D02*
X167477083Y-141898778D01*
X167477083Y-141898778D02*
X167581845Y-141846397D01*
X167581845Y-141846397D02*
X167738988Y-141846397D01*
X167738988Y-141846397D02*
X167843750Y-141898778D01*
X167843750Y-141898778D02*
X167896131Y-142003540D01*
X167896131Y-142003540D02*
X167896131Y-142579730D01*
X168891369Y-141846397D02*
X168891369Y-142736873D01*
X168891369Y-142736873D02*
X168838988Y-142841635D01*
X168838988Y-142841635D02*
X168786607Y-142894016D01*
X168786607Y-142894016D02*
X168681845Y-142946397D01*
X168681845Y-142946397D02*
X168524702Y-142946397D01*
X168524702Y-142946397D02*
X168419940Y-142894016D01*
X168891369Y-142527350D02*
X168786607Y-142579730D01*
X168786607Y-142579730D02*
X168577083Y-142579730D01*
X168577083Y-142579730D02*
X168472321Y-142527350D01*
X168472321Y-142527350D02*
X168419940Y-142474969D01*
X168419940Y-142474969D02*
X168367559Y-142370207D01*
X168367559Y-142370207D02*
X168367559Y-142055921D01*
X168367559Y-142055921D02*
X168419940Y-141951159D01*
X168419940Y-141951159D02*
X168472321Y-141898778D01*
X168472321Y-141898778D02*
X168577083Y-141846397D01*
X168577083Y-141846397D02*
X168786607Y-141846397D01*
X168786607Y-141846397D02*
X168891369Y-141898778D01*
X169572321Y-142579730D02*
X169467559Y-142527350D01*
X169467559Y-142527350D02*
X169415178Y-142474969D01*
X169415178Y-142474969D02*
X169362797Y-142370207D01*
X169362797Y-142370207D02*
X169362797Y-142055921D01*
X169362797Y-142055921D02*
X169415178Y-141951159D01*
X169415178Y-141951159D02*
X169467559Y-141898778D01*
X169467559Y-141898778D02*
X169572321Y-141846397D01*
X169572321Y-141846397D02*
X169729464Y-141846397D01*
X169729464Y-141846397D02*
X169834226Y-141898778D01*
X169834226Y-141898778D02*
X169886607Y-141951159D01*
X169886607Y-141951159D02*
X169938988Y-142055921D01*
X169938988Y-142055921D02*
X169938988Y-142370207D01*
X169938988Y-142370207D02*
X169886607Y-142474969D01*
X169886607Y-142474969D02*
X169834226Y-142527350D01*
X169834226Y-142527350D02*
X169729464Y-142579730D01*
X169729464Y-142579730D02*
X169572321Y-142579730D01*
X170410416Y-141846397D02*
X170410416Y-142946397D01*
X170410416Y-141898778D02*
X170515178Y-141846397D01*
X170515178Y-141846397D02*
X170724702Y-141846397D01*
X170724702Y-141846397D02*
X170829464Y-141898778D01*
X170829464Y-141898778D02*
X170881845Y-141951159D01*
X170881845Y-141951159D02*
X170934226Y-142055921D01*
X170934226Y-142055921D02*
X170934226Y-142370207D01*
X170934226Y-142370207D02*
X170881845Y-142474969D01*
X170881845Y-142474969D02*
X170829464Y-142527350D01*
X170829464Y-142527350D02*
X170724702Y-142579730D01*
X170724702Y-142579730D02*
X170515178Y-142579730D01*
X170515178Y-142579730D02*
X170410416Y-142527350D01*
X171877083Y-142579730D02*
X171877083Y-142003540D01*
X171877083Y-142003540D02*
X171824702Y-141898778D01*
X171824702Y-141898778D02*
X171719940Y-141846397D01*
X171719940Y-141846397D02*
X171510416Y-141846397D01*
X171510416Y-141846397D02*
X171405654Y-141898778D01*
X171877083Y-142527350D02*
X171772321Y-142579730D01*
X171772321Y-142579730D02*
X171510416Y-142579730D01*
X171510416Y-142579730D02*
X171405654Y-142527350D01*
X171405654Y-142527350D02*
X171353273Y-142422588D01*
X171353273Y-142422588D02*
X171353273Y-142317826D01*
X171353273Y-142317826D02*
X171405654Y-142213064D01*
X171405654Y-142213064D02*
X171510416Y-142160683D01*
X171510416Y-142160683D02*
X171772321Y-142160683D01*
X171772321Y-142160683D02*
X171877083Y-142108302D01*
X172872321Y-142579730D02*
X172872321Y-141479730D01*
X172872321Y-142527350D02*
X172767559Y-142579730D01*
X172767559Y-142579730D02*
X172558035Y-142579730D01*
X172558035Y-142579730D02*
X172453273Y-142527350D01*
X172453273Y-142527350D02*
X172400892Y-142474969D01*
X172400892Y-142474969D02*
X172348511Y-142370207D01*
X172348511Y-142370207D02*
X172348511Y-142055921D01*
X172348511Y-142055921D02*
X172400892Y-141951159D01*
X172400892Y-141951159D02*
X172453273Y-141898778D01*
X172453273Y-141898778D02*
X172558035Y-141846397D01*
X172558035Y-141846397D02*
X172767559Y-141846397D01*
X172767559Y-141846397D02*
X172872321Y-141898778D01*
X174286606Y-141741635D02*
X174181845Y-141689254D01*
X174181845Y-141689254D02*
X173972321Y-141689254D01*
X173972321Y-141689254D02*
X173867559Y-141741635D01*
X173867559Y-141741635D02*
X173762797Y-141846397D01*
X173762797Y-141846397D02*
X173710416Y-141951159D01*
X173710416Y-141951159D02*
X173710416Y-142160683D01*
X173710416Y-142160683D02*
X173762797Y-142265445D01*
X173762797Y-142265445D02*
X173867559Y-142370207D01*
X173867559Y-142370207D02*
X173972321Y-142422588D01*
X173972321Y-142422588D02*
X174181845Y-142422588D01*
X174181845Y-142422588D02*
X174286606Y-142370207D01*
X174077083Y-141322588D02*
X173815178Y-141374969D01*
X173815178Y-141374969D02*
X173553273Y-141532111D01*
X173553273Y-141532111D02*
X173396130Y-141794016D01*
X173396130Y-141794016D02*
X173343749Y-142055921D01*
X173343749Y-142055921D02*
X173396130Y-142317826D01*
X173396130Y-142317826D02*
X173553273Y-142579730D01*
X173553273Y-142579730D02*
X173815178Y-142736873D01*
X173815178Y-142736873D02*
X174077083Y-142789254D01*
X174077083Y-142789254D02*
X174338987Y-142736873D01*
X174338987Y-142736873D02*
X174600892Y-142579730D01*
X174600892Y-142579730D02*
X174758035Y-142317826D01*
X174758035Y-142317826D02*
X174810416Y-142055921D01*
X174810416Y-142055921D02*
X174758035Y-141794016D01*
X174758035Y-141794016D02*
X174600892Y-141532111D01*
X174600892Y-141532111D02*
X174338987Y-141374969D01*
X174338987Y-141374969D02*
X174077083Y-141322588D01*
X175962796Y-141479730D02*
X176329463Y-142579730D01*
X176329463Y-142579730D02*
X176696130Y-141479730D01*
X177638987Y-142579730D02*
X177010415Y-142579730D01*
X177324701Y-142579730D02*
X177324701Y-141479730D01*
X177324701Y-141479730D02*
X177219939Y-141636873D01*
X177219939Y-141636873D02*
X177115177Y-141741635D01*
X177115177Y-141741635D02*
X177010415Y-141794016D01*
X178110415Y-142474969D02*
X178162796Y-142527350D01*
X178162796Y-142527350D02*
X178110415Y-142579730D01*
X178110415Y-142579730D02*
X178058034Y-142527350D01*
X178058034Y-142527350D02*
X178110415Y-142474969D01*
X178110415Y-142474969D02*
X178110415Y-142579730D01*
X179210416Y-142579730D02*
X178581844Y-142579730D01*
X178896130Y-142579730D02*
X178896130Y-141479730D01*
X178896130Y-141479730D02*
X178791368Y-141636873D01*
X178791368Y-141636873D02*
X178686606Y-141741635D01*
X178686606Y-141741635D02*
X178581844Y-141794016D01*
D11*
X158242319Y-78446130D02*
X158242319Y-78255654D01*
X158242319Y-78255654D02*
X158289938Y-78160416D01*
X158289938Y-78160416D02*
X158385176Y-78065178D01*
X158385176Y-78065178D02*
X158575652Y-78017559D01*
X158575652Y-78017559D02*
X158908985Y-78017559D01*
X158908985Y-78017559D02*
X159099461Y-78065178D01*
X159099461Y-78065178D02*
X159194700Y-78160416D01*
X159194700Y-78160416D02*
X159242319Y-78255654D01*
X159242319Y-78255654D02*
X159242319Y-78446130D01*
X159242319Y-78446130D02*
X159194700Y-78541368D01*
X159194700Y-78541368D02*
X159099461Y-78636606D01*
X159099461Y-78636606D02*
X158908985Y-78684225D01*
X158908985Y-78684225D02*
X158575652Y-78684225D01*
X158575652Y-78684225D02*
X158385176Y-78636606D01*
X158385176Y-78636606D02*
X158289938Y-78541368D01*
X158289938Y-78541368D02*
X158242319Y-78446130D01*
X159242319Y-77112797D02*
X159242319Y-77588987D01*
X159242319Y-77588987D02*
X158242319Y-77588987D01*
X158718509Y-76779463D02*
X158718509Y-76446130D01*
X159242319Y-76303273D02*
X159242319Y-76779463D01*
X159242319Y-76779463D02*
X158242319Y-76779463D01*
X158242319Y-76779463D02*
X158242319Y-76303273D01*
X159242319Y-75874701D02*
X158242319Y-75874701D01*
X158242319Y-75874701D02*
X158242319Y-75636606D01*
X158242319Y-75636606D02*
X158289938Y-75493749D01*
X158289938Y-75493749D02*
X158385176Y-75398511D01*
X158385176Y-75398511D02*
X158480414Y-75350892D01*
X158480414Y-75350892D02*
X158670890Y-75303273D01*
X158670890Y-75303273D02*
X158813747Y-75303273D01*
X158813747Y-75303273D02*
X159004223Y-75350892D01*
X159004223Y-75350892D02*
X159099461Y-75398511D01*
X159099461Y-75398511D02*
X159194700Y-75493749D01*
X159194700Y-75493749D02*
X159242319Y-75636606D01*
X159242319Y-75636606D02*
X159242319Y-75874701D01*
X127828533Y-106352083D02*
X127828533Y-106685416D01*
X127828533Y-106685416D02*
X127128533Y-106685416D01*
X127461866Y-106118749D02*
X127461866Y-105885416D01*
X127828533Y-105785416D02*
X127828533Y-106118749D01*
X127828533Y-106118749D02*
X127128533Y-106118749D01*
X127128533Y-106118749D02*
X127128533Y-105785416D01*
X127828533Y-105485416D02*
X127128533Y-105485416D01*
X127128533Y-105485416D02*
X127128533Y-105318749D01*
X127128533Y-105318749D02*
X127161866Y-105218749D01*
X127161866Y-105218749D02*
X127228533Y-105152083D01*
X127228533Y-105152083D02*
X127295200Y-105118749D01*
X127295200Y-105118749D02*
X127428533Y-105085416D01*
X127428533Y-105085416D02*
X127528533Y-105085416D01*
X127528533Y-105085416D02*
X127661866Y-105118749D01*
X127661866Y-105118749D02*
X127728533Y-105152083D01*
X127728533Y-105152083D02*
X127795200Y-105218749D01*
X127795200Y-105218749D02*
X127828533Y-105318749D01*
X127828533Y-105318749D02*
X127828533Y-105485416D01*
X127828533Y-104418749D02*
X127828533Y-104818749D01*
X127828533Y-104618749D02*
X127128533Y-104618749D01*
X127128533Y-104618749D02*
X127228533Y-104685416D01*
X127228533Y-104685416D02*
X127295200Y-104752083D01*
X127295200Y-104752083D02*
X127328533Y-104818749D01*
X161914583Y-138871466D02*
X162247916Y-138871466D01*
X162247916Y-138871466D02*
X162247916Y-139571466D01*
X161681249Y-139238133D02*
X161447916Y-139238133D01*
X161347916Y-138871466D02*
X161681249Y-138871466D01*
X161681249Y-138871466D02*
X161681249Y-139571466D01*
X161681249Y-139571466D02*
X161347916Y-139571466D01*
X161047916Y-138871466D02*
X161047916Y-139571466D01*
X161047916Y-139571466D02*
X160881249Y-139571466D01*
X160881249Y-139571466D02*
X160781249Y-139538133D01*
X160781249Y-139538133D02*
X160714583Y-139471466D01*
X160714583Y-139471466D02*
X160681249Y-139404800D01*
X160681249Y-139404800D02*
X160647916Y-139271466D01*
X160647916Y-139271466D02*
X160647916Y-139171466D01*
X160647916Y-139171466D02*
X160681249Y-139038133D01*
X160681249Y-139038133D02*
X160714583Y-138971466D01*
X160714583Y-138971466D02*
X160781249Y-138904800D01*
X160781249Y-138904800D02*
X160881249Y-138871466D01*
X160881249Y-138871466D02*
X161047916Y-138871466D01*
X160047916Y-139338133D02*
X160047916Y-138871466D01*
X160214583Y-139604800D02*
X160381249Y-139104800D01*
X160381249Y-139104800D02*
X159947916Y-139104800D01*
X175383966Y-123835417D02*
X175383966Y-123502083D01*
X175383966Y-123502083D02*
X176083966Y-123502083D01*
X175750633Y-124068750D02*
X175750633Y-124302084D01*
X175383966Y-124402084D02*
X175383966Y-124068750D01*
X175383966Y-124068750D02*
X176083966Y-124068750D01*
X176083966Y-124068750D02*
X176083966Y-124402084D01*
X175383966Y-124702083D02*
X176083966Y-124702083D01*
X176083966Y-124702083D02*
X176083966Y-124868750D01*
X176083966Y-124868750D02*
X176050633Y-124968750D01*
X176050633Y-124968750D02*
X175983966Y-125035417D01*
X175983966Y-125035417D02*
X175917300Y-125068750D01*
X175917300Y-125068750D02*
X175783966Y-125102083D01*
X175783966Y-125102083D02*
X175683966Y-125102083D01*
X175683966Y-125102083D02*
X175550633Y-125068750D01*
X175550633Y-125068750D02*
X175483966Y-125035417D01*
X175483966Y-125035417D02*
X175417300Y-124968750D01*
X175417300Y-124968750D02*
X175383966Y-124868750D01*
X175383966Y-124868750D02*
X175383966Y-124702083D01*
X176083966Y-125735417D02*
X176083966Y-125402083D01*
X176083966Y-125402083D02*
X175750633Y-125368750D01*
X175750633Y-125368750D02*
X175783966Y-125402083D01*
X175783966Y-125402083D02*
X175817300Y-125468750D01*
X175817300Y-125468750D02*
X175817300Y-125635417D01*
X175817300Y-125635417D02*
X175783966Y-125702083D01*
X175783966Y-125702083D02*
X175750633Y-125735417D01*
X175750633Y-125735417D02*
X175683966Y-125768750D01*
X175683966Y-125768750D02*
X175517300Y-125768750D01*
X175517300Y-125768750D02*
X175450633Y-125735417D01*
X175450633Y-125735417D02*
X175417300Y-125702083D01*
X175417300Y-125702083D02*
X175383966Y-125635417D01*
X175383966Y-125635417D02*
X175383966Y-125468750D01*
X175383966Y-125468750D02*
X175417300Y-125402083D01*
X175417300Y-125402083D02*
X175450633Y-125368750D01*
X175383966Y-104785417D02*
X175383966Y-104452083D01*
X175383966Y-104452083D02*
X176083966Y-104452083D01*
X175750633Y-105018750D02*
X175750633Y-105252084D01*
X175383966Y-105352084D02*
X175383966Y-105018750D01*
X175383966Y-105018750D02*
X176083966Y-105018750D01*
X176083966Y-105018750D02*
X176083966Y-105352084D01*
X175383966Y-105652083D02*
X176083966Y-105652083D01*
X176083966Y-105652083D02*
X176083966Y-105818750D01*
X176083966Y-105818750D02*
X176050633Y-105918750D01*
X176050633Y-105918750D02*
X175983966Y-105985417D01*
X175983966Y-105985417D02*
X175917300Y-106018750D01*
X175917300Y-106018750D02*
X175783966Y-106052083D01*
X175783966Y-106052083D02*
X175683966Y-106052083D01*
X175683966Y-106052083D02*
X175550633Y-106018750D01*
X175550633Y-106018750D02*
X175483966Y-105985417D01*
X175483966Y-105985417D02*
X175417300Y-105918750D01*
X175417300Y-105918750D02*
X175383966Y-105818750D01*
X175383966Y-105818750D02*
X175383966Y-105652083D01*
X176083966Y-106652083D02*
X176083966Y-106518750D01*
X176083966Y-106518750D02*
X176050633Y-106452083D01*
X176050633Y-106452083D02*
X176017300Y-106418750D01*
X176017300Y-106418750D02*
X175917300Y-106352083D01*
X175917300Y-106352083D02*
X175783966Y-106318750D01*
X175783966Y-106318750D02*
X175517300Y-106318750D01*
X175517300Y-106318750D02*
X175450633Y-106352083D01*
X175450633Y-106352083D02*
X175417300Y-106385417D01*
X175417300Y-106385417D02*
X175383966Y-106452083D01*
X175383966Y-106452083D02*
X175383966Y-106585417D01*
X175383966Y-106585417D02*
X175417300Y-106652083D01*
X175417300Y-106652083D02*
X175450633Y-106685417D01*
X175450633Y-106685417D02*
X175517300Y-106718750D01*
X175517300Y-106718750D02*
X175683966Y-106718750D01*
X175683966Y-106718750D02*
X175750633Y-106685417D01*
X175750633Y-106685417D02*
X175783966Y-106652083D01*
X175783966Y-106652083D02*
X175817300Y-106585417D01*
X175817300Y-106585417D02*
X175817300Y-106452083D01*
X175817300Y-106452083D02*
X175783966Y-106385417D01*
X175783966Y-106385417D02*
X175750633Y-106352083D01*
X175750633Y-106352083D02*
X175683966Y-106318750D01*
X175429167Y-72266033D02*
X175095833Y-72266033D01*
X175095833Y-72266033D02*
X175095833Y-71566033D01*
X175662500Y-71899366D02*
X175895834Y-71899366D01*
X175995834Y-72266033D02*
X175662500Y-72266033D01*
X175662500Y-72266033D02*
X175662500Y-71566033D01*
X175662500Y-71566033D02*
X175995834Y-71566033D01*
X176295833Y-72266033D02*
X176295833Y-71566033D01*
X176295833Y-71566033D02*
X176462500Y-71566033D01*
X176462500Y-71566033D02*
X176562500Y-71599366D01*
X176562500Y-71599366D02*
X176629167Y-71666033D01*
X176629167Y-71666033D02*
X176662500Y-71732700D01*
X176662500Y-71732700D02*
X176695833Y-71866033D01*
X176695833Y-71866033D02*
X176695833Y-71966033D01*
X176695833Y-71966033D02*
X176662500Y-72099366D01*
X176662500Y-72099366D02*
X176629167Y-72166033D01*
X176629167Y-72166033D02*
X176562500Y-72232700D01*
X176562500Y-72232700D02*
X176462500Y-72266033D01*
X176462500Y-72266033D02*
X176295833Y-72266033D01*
X176929167Y-71566033D02*
X177395833Y-71566033D01*
X177395833Y-71566033D02*
X177095833Y-72266033D01*
X161141667Y-72266033D02*
X160808333Y-72266033D01*
X160808333Y-72266033D02*
X160808333Y-71566033D01*
X161375000Y-71899366D02*
X161608334Y-71899366D01*
X161708334Y-72266033D02*
X161375000Y-72266033D01*
X161375000Y-72266033D02*
X161375000Y-71566033D01*
X161375000Y-71566033D02*
X161708334Y-71566033D01*
X162008333Y-72266033D02*
X162008333Y-71566033D01*
X162008333Y-71566033D02*
X162175000Y-71566033D01*
X162175000Y-71566033D02*
X162275000Y-71599366D01*
X162275000Y-71599366D02*
X162341667Y-71666033D01*
X162341667Y-71666033D02*
X162375000Y-71732700D01*
X162375000Y-71732700D02*
X162408333Y-71866033D01*
X162408333Y-71866033D02*
X162408333Y-71966033D01*
X162408333Y-71966033D02*
X162375000Y-72099366D01*
X162375000Y-72099366D02*
X162341667Y-72166033D01*
X162341667Y-72166033D02*
X162275000Y-72232700D01*
X162275000Y-72232700D02*
X162175000Y-72266033D01*
X162175000Y-72266033D02*
X162008333Y-72266033D01*
X162808333Y-71866033D02*
X162741667Y-71832700D01*
X162741667Y-71832700D02*
X162708333Y-71799366D01*
X162708333Y-71799366D02*
X162675000Y-71732700D01*
X162675000Y-71732700D02*
X162675000Y-71699366D01*
X162675000Y-71699366D02*
X162708333Y-71632700D01*
X162708333Y-71632700D02*
X162741667Y-71599366D01*
X162741667Y-71599366D02*
X162808333Y-71566033D01*
X162808333Y-71566033D02*
X162941667Y-71566033D01*
X162941667Y-71566033D02*
X163008333Y-71599366D01*
X163008333Y-71599366D02*
X163041667Y-71632700D01*
X163041667Y-71632700D02*
X163075000Y-71699366D01*
X163075000Y-71699366D02*
X163075000Y-71732700D01*
X163075000Y-71732700D02*
X163041667Y-71799366D01*
X163041667Y-71799366D02*
X163008333Y-71832700D01*
X163008333Y-71832700D02*
X162941667Y-71866033D01*
X162941667Y-71866033D02*
X162808333Y-71866033D01*
X162808333Y-71866033D02*
X162741667Y-71899366D01*
X162741667Y-71899366D02*
X162708333Y-71932700D01*
X162708333Y-71932700D02*
X162675000Y-71999366D01*
X162675000Y-71999366D02*
X162675000Y-72132700D01*
X162675000Y-72132700D02*
X162708333Y-72199366D01*
X162708333Y-72199366D02*
X162741667Y-72232700D01*
X162741667Y-72232700D02*
X162808333Y-72266033D01*
X162808333Y-72266033D02*
X162941667Y-72266033D01*
X162941667Y-72266033D02*
X163008333Y-72232700D01*
X163008333Y-72232700D02*
X163041667Y-72199366D01*
X163041667Y-72199366D02*
X163075000Y-72132700D01*
X163075000Y-72132700D02*
X163075000Y-71999366D01*
X163075000Y-71999366D02*
X163041667Y-71932700D01*
X163041667Y-71932700D02*
X163008333Y-71899366D01*
X163008333Y-71899366D02*
X162941667Y-71866033D01*
X142864583Y-138871466D02*
X143197916Y-138871466D01*
X143197916Y-138871466D02*
X143197916Y-139571466D01*
X142631249Y-139238133D02*
X142397916Y-139238133D01*
X142297916Y-138871466D02*
X142631249Y-138871466D01*
X142631249Y-138871466D02*
X142631249Y-139571466D01*
X142631249Y-139571466D02*
X142297916Y-139571466D01*
X141997916Y-138871466D02*
X141997916Y-139571466D01*
X141997916Y-139571466D02*
X141831249Y-139571466D01*
X141831249Y-139571466D02*
X141731249Y-139538133D01*
X141731249Y-139538133D02*
X141664583Y-139471466D01*
X141664583Y-139471466D02*
X141631249Y-139404800D01*
X141631249Y-139404800D02*
X141597916Y-139271466D01*
X141597916Y-139271466D02*
X141597916Y-139171466D01*
X141597916Y-139171466D02*
X141631249Y-139038133D01*
X141631249Y-139038133D02*
X141664583Y-138971466D01*
X141664583Y-138971466D02*
X141731249Y-138904800D01*
X141731249Y-138904800D02*
X141831249Y-138871466D01*
X141831249Y-138871466D02*
X141997916Y-138871466D01*
X141364583Y-139571466D02*
X140931249Y-139571466D01*
X140931249Y-139571466D02*
X141164583Y-139304800D01*
X141164583Y-139304800D02*
X141064583Y-139304800D01*
X141064583Y-139304800D02*
X140997916Y-139271466D01*
X140997916Y-139271466D02*
X140964583Y-139238133D01*
X140964583Y-139238133D02*
X140931249Y-139171466D01*
X140931249Y-139171466D02*
X140931249Y-139004800D01*
X140931249Y-139004800D02*
X140964583Y-138938133D01*
X140964583Y-138938133D02*
X140997916Y-138904800D01*
X140997916Y-138904800D02*
X141064583Y-138871466D01*
X141064583Y-138871466D02*
X141264583Y-138871466D01*
X141264583Y-138871466D02*
X141331249Y-138904800D01*
X141331249Y-138904800D02*
X141364583Y-138938133D01*
X127828533Y-125402083D02*
X127828533Y-125735416D01*
X127828533Y-125735416D02*
X127128533Y-125735416D01*
X127461866Y-125168749D02*
X127461866Y-124935416D01*
X127828533Y-124835416D02*
X127828533Y-125168749D01*
X127828533Y-125168749D02*
X127128533Y-125168749D01*
X127128533Y-125168749D02*
X127128533Y-124835416D01*
X127828533Y-124535416D02*
X127128533Y-124535416D01*
X127128533Y-124535416D02*
X127128533Y-124368749D01*
X127128533Y-124368749D02*
X127161866Y-124268749D01*
X127161866Y-124268749D02*
X127228533Y-124202083D01*
X127228533Y-124202083D02*
X127295200Y-124168749D01*
X127295200Y-124168749D02*
X127428533Y-124135416D01*
X127428533Y-124135416D02*
X127528533Y-124135416D01*
X127528533Y-124135416D02*
X127661866Y-124168749D01*
X127661866Y-124168749D02*
X127728533Y-124202083D01*
X127728533Y-124202083D02*
X127795200Y-124268749D01*
X127795200Y-124268749D02*
X127828533Y-124368749D01*
X127828533Y-124368749D02*
X127828533Y-124535416D01*
X127195200Y-123868749D02*
X127161866Y-123835416D01*
X127161866Y-123835416D02*
X127128533Y-123768749D01*
X127128533Y-123768749D02*
X127128533Y-123602083D01*
X127128533Y-123602083D02*
X127161866Y-123535416D01*
X127161866Y-123535416D02*
X127195200Y-123502083D01*
X127195200Y-123502083D02*
X127261866Y-123468749D01*
X127261866Y-123468749D02*
X127328533Y-123468749D01*
X127328533Y-123468749D02*
X127428533Y-123502083D01*
X127428533Y-123502083D02*
X127828533Y-123902083D01*
X127828533Y-123902083D02*
X127828533Y-123468749D01*
X135723333Y-80162319D02*
X135390000Y-79686128D01*
X135151905Y-80162319D02*
X135151905Y-79162319D01*
X135151905Y-79162319D02*
X135532857Y-79162319D01*
X135532857Y-79162319D02*
X135628095Y-79209938D01*
X135628095Y-79209938D02*
X135675714Y-79257557D01*
X135675714Y-79257557D02*
X135723333Y-79352795D01*
X135723333Y-79352795D02*
X135723333Y-79495652D01*
X135723333Y-79495652D02*
X135675714Y-79590890D01*
X135675714Y-79590890D02*
X135628095Y-79638509D01*
X135628095Y-79638509D02*
X135532857Y-79686128D01*
X135532857Y-79686128D02*
X135151905Y-79686128D01*
X136104286Y-79257557D02*
X136151905Y-79209938D01*
X136151905Y-79209938D02*
X136247143Y-79162319D01*
X136247143Y-79162319D02*
X136485238Y-79162319D01*
X136485238Y-79162319D02*
X136580476Y-79209938D01*
X136580476Y-79209938D02*
X136628095Y-79257557D01*
X136628095Y-79257557D02*
X136675714Y-79352795D01*
X136675714Y-79352795D02*
X136675714Y-79448033D01*
X136675714Y-79448033D02*
X136628095Y-79590890D01*
X136628095Y-79590890D02*
X136056667Y-80162319D01*
X136056667Y-80162319D02*
X136675714Y-80162319D01*
X135723333Y-77781069D02*
X135390000Y-77304878D01*
X135151905Y-77781069D02*
X135151905Y-76781069D01*
X135151905Y-76781069D02*
X135532857Y-76781069D01*
X135532857Y-76781069D02*
X135628095Y-76828688D01*
X135628095Y-76828688D02*
X135675714Y-76876307D01*
X135675714Y-76876307D02*
X135723333Y-76971545D01*
X135723333Y-76971545D02*
X135723333Y-77114402D01*
X135723333Y-77114402D02*
X135675714Y-77209640D01*
X135675714Y-77209640D02*
X135628095Y-77257259D01*
X135628095Y-77257259D02*
X135532857Y-77304878D01*
X135532857Y-77304878D02*
X135151905Y-77304878D01*
X136675714Y-77781069D02*
X136104286Y-77781069D01*
X136390000Y-77781069D02*
X136390000Y-76781069D01*
X136390000Y-76781069D02*
X136294762Y-76923926D01*
X136294762Y-76923926D02*
X136199524Y-77019164D01*
X136199524Y-77019164D02*
X136104286Y-77066783D01*
D12*
%TO.C,G\u002A\u002A\u002A*%
X142561800Y-113277925D02*
X142771399Y-113453664D01*
X143063857Y-113987399D01*
X143129819Y-114630767D01*
X142964063Y-115237019D01*
X142841519Y-115424324D01*
X142395715Y-115740249D01*
X141793991Y-115889138D01*
X141185190Y-115851658D01*
X140811250Y-115688012D01*
X140522293Y-115292367D01*
X140405037Y-114728832D01*
X140458885Y-114121081D01*
X140683237Y-113592787D01*
X140822164Y-113429934D01*
X141367545Y-113120837D01*
X141987948Y-113070661D01*
X142561800Y-113277925D01*
G36*
X142561800Y-113277925D02*
G01*
X142771399Y-113453664D01*
X143063857Y-113987399D01*
X143129819Y-114630767D01*
X142964063Y-115237019D01*
X142841519Y-115424324D01*
X142395715Y-115740249D01*
X141793991Y-115889138D01*
X141185190Y-115851658D01*
X140811250Y-115688012D01*
X140522293Y-115292367D01*
X140405037Y-114728832D01*
X140458885Y-114121081D01*
X140683237Y-113592787D01*
X140822164Y-113429934D01*
X141367545Y-113120837D01*
X141987948Y-113070661D01*
X142561800Y-113277925D01*
G37*
X166252022Y-119397398D02*
X166491297Y-119677006D01*
X166491078Y-120032054D01*
X166304383Y-120309217D01*
X165951094Y-120471863D01*
X165465625Y-120500934D01*
X165016429Y-120401272D01*
X164821001Y-120266551D01*
X164660374Y-119878201D01*
X164809994Y-119536497D01*
X165241691Y-119301147D01*
X165281581Y-119290241D01*
X165829902Y-119249665D01*
X166252022Y-119397398D01*
G36*
X166252022Y-119397398D02*
G01*
X166491297Y-119677006D01*
X166491078Y-120032054D01*
X166304383Y-120309217D01*
X165951094Y-120471863D01*
X165465625Y-120500934D01*
X165016429Y-120401272D01*
X164821001Y-120266551D01*
X164660374Y-119878201D01*
X164809994Y-119536497D01*
X165241691Y-119301147D01*
X165281581Y-119290241D01*
X165829902Y-119249665D01*
X166252022Y-119397398D01*
G37*
X131578533Y-111297918D02*
X131890300Y-111555712D01*
X131932067Y-111914404D01*
X131697488Y-112287655D01*
X131300906Y-112497546D01*
X130805154Y-112541638D01*
X130380539Y-112412243D01*
X130304117Y-112350550D01*
X130092410Y-111963988D01*
X130169036Y-111594938D01*
X130488153Y-111315892D01*
X131003919Y-111199346D01*
X131032250Y-111199083D01*
X131578533Y-111297918D01*
G36*
X131578533Y-111297918D02*
G01*
X131890300Y-111555712D01*
X131932067Y-111914404D01*
X131697488Y-112287655D01*
X131300906Y-112497546D01*
X130805154Y-112541638D01*
X130380539Y-112412243D01*
X130304117Y-112350550D01*
X130092410Y-111963988D01*
X130169036Y-111594938D01*
X130488153Y-111315892D01*
X131003919Y-111199346D01*
X131032250Y-111199083D01*
X131578533Y-111297918D01*
G37*
X127859426Y-112532503D02*
X128068917Y-112723083D01*
X128308022Y-113009804D01*
X128309962Y-113243881D01*
X128188923Y-113455162D01*
X127830216Y-113786788D01*
X127421373Y-113867571D01*
X127071376Y-113676583D01*
X127066449Y-113670723D01*
X126909160Y-113260900D01*
X127065581Y-112847976D01*
X127336837Y-112603903D01*
X127626521Y-112458593D01*
X127859426Y-112532503D01*
G36*
X127859426Y-112532503D02*
G01*
X128068917Y-112723083D01*
X128308022Y-113009804D01*
X128309962Y-113243881D01*
X128188923Y-113455162D01*
X127830216Y-113786788D01*
X127421373Y-113867571D01*
X127071376Y-113676583D01*
X127066449Y-113670723D01*
X126909160Y-113260900D01*
X127065581Y-112847976D01*
X127336837Y-112603903D01*
X127626521Y-112458593D01*
X127859426Y-112532503D01*
G37*
X163553756Y-118441308D02*
X163822580Y-118733321D01*
X163965175Y-119039134D01*
X163967583Y-119073083D01*
X163832812Y-119424637D01*
X163508695Y-119698597D01*
X163115529Y-119832079D01*
X162773610Y-119762203D01*
X162725805Y-119722194D01*
X162609335Y-119399332D01*
X162679858Y-118972950D01*
X162884971Y-118574050D01*
X163172273Y-118333639D01*
X163290250Y-118311083D01*
X163553756Y-118441308D01*
G36*
X163553756Y-118441308D02*
G01*
X163822580Y-118733321D01*
X163965175Y-119039134D01*
X163967583Y-119073083D01*
X163832812Y-119424637D01*
X163508695Y-119698597D01*
X163115529Y-119832079D01*
X162773610Y-119762203D01*
X162725805Y-119722194D01*
X162609335Y-119399332D01*
X162679858Y-118972950D01*
X162884971Y-118574050D01*
X163172273Y-118333639D01*
X163290250Y-118311083D01*
X163553756Y-118441308D01*
G37*
X129080637Y-110460971D02*
X129298791Y-110755726D01*
X129307715Y-111171203D01*
X129177714Y-111464438D01*
X128829265Y-111791816D01*
X128447735Y-111854406D01*
X128131272Y-111642776D01*
X128085834Y-111569360D01*
X128028612Y-111149932D01*
X128203698Y-110723784D01*
X128538526Y-110431669D01*
X128696698Y-110384474D01*
X129080637Y-110460971D01*
G36*
X129080637Y-110460971D02*
G01*
X129298791Y-110755726D01*
X129307715Y-111171203D01*
X129177714Y-111464438D01*
X128829265Y-111791816D01*
X128447735Y-111854406D01*
X128131272Y-111642776D01*
X128085834Y-111569360D01*
X128028612Y-111149932D01*
X128203698Y-110723784D01*
X128538526Y-110431669D01*
X128696698Y-110384474D01*
X129080637Y-110460971D01*
G37*
X158582915Y-118296276D02*
X158725073Y-118401925D01*
X158926445Y-118757262D01*
X159042374Y-119297102D01*
X159065216Y-119887969D01*
X158987324Y-120396390D01*
X158853717Y-120647883D01*
X158492555Y-120813205D01*
X157957183Y-120859918D01*
X157387234Y-120796675D01*
X156922344Y-120632130D01*
X156777045Y-120519189D01*
X156554473Y-120066543D01*
X156583802Y-119559242D01*
X156810001Y-119057097D01*
X157178042Y-118619917D01*
X157632894Y-118307514D01*
X158119528Y-118179697D01*
X158582915Y-118296276D01*
G36*
X158582915Y-118296276D02*
G01*
X158725073Y-118401925D01*
X158926445Y-118757262D01*
X159042374Y-119297102D01*
X159065216Y-119887969D01*
X158987324Y-120396390D01*
X158853717Y-120647883D01*
X158492555Y-120813205D01*
X157957183Y-120859918D01*
X157387234Y-120796675D01*
X156922344Y-120632130D01*
X156777045Y-120519189D01*
X156554473Y-120066543D01*
X156583802Y-119559242D01*
X156810001Y-119057097D01*
X157178042Y-118619917D01*
X157632894Y-118307514D01*
X158119528Y-118179697D01*
X158582915Y-118296276D01*
G37*
X149030252Y-99216617D02*
X149365011Y-99424117D01*
X149741083Y-99786689D01*
X149764421Y-99811417D01*
X150194622Y-100292348D01*
X150674384Y-100865775D01*
X151153993Y-101467258D01*
X151583734Y-102032360D01*
X151913894Y-102496644D01*
X152094759Y-102795671D01*
X152114250Y-102857182D01*
X152262478Y-103147824D01*
X152715375Y-103440356D01*
X153485255Y-103741207D01*
X154237637Y-103965183D01*
X155006583Y-104192211D01*
X155733216Y-104436660D01*
X156296593Y-104656863D01*
X156438971Y-104723606D01*
X156825314Y-104895502D01*
X157461011Y-105150837D01*
X158275348Y-105462366D01*
X159197609Y-105802841D01*
X159818917Y-106025866D01*
X161549966Y-106666670D01*
X163054437Y-107287456D01*
X164437554Y-107936052D01*
X165804539Y-108660283D01*
X166543587Y-109082455D01*
X167274403Y-109485428D01*
X168031117Y-109864901D01*
X168672132Y-110150591D01*
X168780267Y-110192644D01*
X169710943Y-110540854D01*
X171707596Y-109758662D01*
X172533496Y-109433601D01*
X173301982Y-109128423D01*
X173926694Y-108877594D01*
X174318580Y-108716713D01*
X174833029Y-108535317D01*
X175212366Y-108511429D01*
X175477254Y-108678498D01*
X175648359Y-109069973D01*
X175746346Y-109719303D01*
X175791880Y-110659935D01*
X175799901Y-111114417D01*
X175757727Y-112658611D01*
X175578218Y-113988781D01*
X175245103Y-115207191D01*
X175077308Y-115656040D01*
X174829191Y-116384183D01*
X174629884Y-117160729D01*
X174547606Y-117634147D01*
X174451711Y-118278476D01*
X174331465Y-118877603D01*
X174268537Y-119117056D01*
X174188446Y-119510985D01*
X174272008Y-119825323D01*
X174559865Y-120215266D01*
X174922848Y-120734534D01*
X175363421Y-121500870D01*
X175846994Y-122441794D01*
X176338978Y-123484824D01*
X176804785Y-124557479D01*
X177209827Y-125587280D01*
X177442719Y-126256280D01*
X177901456Y-127970709D01*
X178127307Y-129515947D01*
X178240175Y-131011083D01*
X177834879Y-130998676D01*
X177489297Y-130949963D01*
X176921544Y-130831003D01*
X176235193Y-130664193D01*
X175990250Y-130599760D01*
X175120722Y-130372266D01*
X174175303Y-130134202D01*
X173346069Y-129933853D01*
X173280917Y-129918676D01*
X172576847Y-129746192D01*
X171679084Y-129513181D01*
X170718967Y-129254230D01*
X170063583Y-129071363D01*
X169178310Y-128827591D01*
X168297949Y-128598017D01*
X167537469Y-128411960D01*
X167100250Y-128315661D01*
X166365621Y-128157319D01*
X165606213Y-127976010D01*
X165237583Y-127879575D01*
X164233844Y-127616867D01*
X163221954Y-127375727D01*
X162303957Y-127178984D01*
X161581894Y-127049465D01*
X161437567Y-127029458D01*
X160699257Y-126909158D01*
X159697682Y-126704298D01*
X158493872Y-126427929D01*
X157617583Y-126212534D01*
X157067912Y-126078724D01*
X156284645Y-125894046D01*
X155364788Y-125681110D01*
X154405346Y-125462524D01*
X154230917Y-125423196D01*
X152596038Y-125054345D01*
X151254026Y-124749214D01*
X150167005Y-124498686D01*
X149297100Y-124293641D01*
X148606434Y-124124963D01*
X148057133Y-123983534D01*
X147611322Y-123860236D01*
X147231126Y-123745951D01*
X147128370Y-123713396D01*
X146533233Y-123540781D01*
X146022627Y-123423811D01*
X145763610Y-123391083D01*
X145439253Y-123352005D01*
X144888320Y-123247951D01*
X144212128Y-123098695D01*
X143976156Y-123042254D01*
X141322990Y-122400467D01*
X138401500Y-121704504D01*
X136874250Y-121344306D01*
X135903552Y-121114271D01*
X134721646Y-120831379D01*
X133446121Y-120523933D01*
X132194568Y-120220236D01*
X131540250Y-120060455D01*
X130467939Y-119805886D01*
X129411707Y-119569458D01*
X128454155Y-119368635D01*
X127677885Y-119220883D01*
X127252701Y-119153884D01*
X126630770Y-119064769D01*
X126142393Y-118978585D01*
X125883503Y-118912497D01*
X125872831Y-118906993D01*
X125724221Y-118660780D01*
X125572243Y-118145208D01*
X125427923Y-117429279D01*
X125302288Y-116581995D01*
X125206366Y-115672357D01*
X125151183Y-114769367D01*
X125143200Y-114380079D01*
X126411508Y-114380079D01*
X126420335Y-115298912D01*
X126453593Y-116159630D01*
X126510083Y-116878470D01*
X126588607Y-117371665D01*
X126620297Y-117473535D01*
X126848054Y-117657413D01*
X127364563Y-117857702D01*
X128031954Y-118035137D01*
X128805497Y-118213643D01*
X129746828Y-118433545D01*
X130694459Y-118657048D01*
X131032250Y-118737356D01*
X131544737Y-118859031D01*
X132345475Y-119048471D01*
X133393046Y-119295907D01*
X134646030Y-119591569D01*
X136063006Y-119925685D01*
X137602557Y-120288486D01*
X139223262Y-120670202D01*
X140684250Y-121014124D01*
X142312100Y-121397412D01*
X143870469Y-121764684D01*
X145321963Y-122107105D01*
X146629185Y-122415836D01*
X147754741Y-122682040D01*
X148661236Y-122896880D01*
X149311274Y-123051520D01*
X149658917Y-123135033D01*
X151115678Y-123484912D01*
X152584205Y-123827478D01*
X154021696Y-124153601D01*
X155385350Y-124454149D01*
X156632365Y-124719992D01*
X157719940Y-124941999D01*
X158605271Y-125111039D01*
X159245559Y-125217982D01*
X159590646Y-125253750D01*
X159680863Y-125135472D01*
X159721837Y-124760227D01*
X159715401Y-124097401D01*
X159691079Y-123576580D01*
X159651510Y-121892718D01*
X159742165Y-120488381D01*
X159973571Y-119326287D01*
X160356253Y-118369153D01*
X160900738Y-117579695D01*
X161557360Y-116966538D01*
X162454067Y-116405380D01*
X163354305Y-116138472D01*
X164336970Y-116152185D01*
X165181927Y-116340285D01*
X166194264Y-116725174D01*
X166945310Y-117237162D01*
X167504215Y-117929159D01*
X167682034Y-118253198D01*
X167968828Y-118795203D01*
X168239490Y-119250031D01*
X168372123Y-119438531D01*
X168685156Y-119876650D01*
X168942761Y-120334206D01*
X169096359Y-120712801D01*
X169099566Y-120911990D01*
X168773608Y-121022547D01*
X168346299Y-120846904D01*
X167879791Y-120421858D01*
X167568655Y-120043610D01*
X167380142Y-119768369D01*
X167354250Y-119701065D01*
X167249049Y-119520927D01*
X166974762Y-119172460D01*
X166634583Y-118780471D01*
X165823550Y-118048410D01*
X164958021Y-117621431D01*
X163967208Y-117466340D01*
X163828039Y-117464417D01*
X163024265Y-117608235D01*
X162268710Y-117995340D01*
X161655090Y-118559204D01*
X161277120Y-119233301D01*
X161260761Y-119286878D01*
X161109025Y-119994643D01*
X161005823Y-120844540D01*
X160949671Y-121772081D01*
X160939088Y-122712777D01*
X160972589Y-123602142D01*
X161048693Y-124375686D01*
X161165917Y-124968921D01*
X161322778Y-125317360D01*
X161400753Y-125375419D01*
X161768578Y-125569964D01*
X161952780Y-125706318D01*
X162200944Y-125818914D01*
X162720466Y-125987024D01*
X163451882Y-126193693D01*
X164335728Y-126421968D01*
X165141529Y-126615477D01*
X166354042Y-126906677D01*
X167699815Y-127245732D01*
X169041373Y-127597068D01*
X170241240Y-127925109D01*
X170627666Y-128035165D01*
X171839461Y-128374744D01*
X173022303Y-128686731D01*
X174124798Y-128959278D01*
X175095552Y-129180536D01*
X175883170Y-129338657D01*
X176436258Y-129421792D01*
X176667583Y-129427614D01*
X176835324Y-129298812D01*
X176880774Y-128937158D01*
X176869450Y-128719093D01*
X176757973Y-128144613D01*
X176511102Y-127341146D01*
X176158219Y-126375582D01*
X175728703Y-125314816D01*
X175251934Y-124225739D01*
X174757291Y-123175244D01*
X174274153Y-122230223D01*
X173831902Y-121457569D01*
X173459915Y-120924175D01*
X173430992Y-120890311D01*
X172960737Y-120198977D01*
X172810032Y-119549824D01*
X172916438Y-119027463D01*
X173041051Y-118614831D01*
X173180623Y-118011057D01*
X173284154Y-117464417D01*
X173442047Y-116753120D01*
X173685174Y-115903230D01*
X173963835Y-115086782D01*
X173993486Y-115009083D01*
X174252731Y-114279614D01*
X174422280Y-113621196D01*
X174526585Y-112904815D01*
X174590101Y-112001457D01*
X174598801Y-111815526D01*
X174680614Y-109976636D01*
X174277099Y-110104474D01*
X173924342Y-110231967D01*
X173374117Y-110447711D01*
X172740399Y-110706927D01*
X172688250Y-110728727D01*
X171935599Y-111038391D01*
X171145750Y-111354716D01*
X170551146Y-111585664D01*
X169599376Y-111946185D01*
X168349813Y-111397045D01*
X167730734Y-111104948D01*
X166916131Y-110692109D01*
X166002732Y-110208914D01*
X165087264Y-109705748D01*
X164898917Y-109599488D01*
X162311000Y-108301929D01*
X160478676Y-107586786D01*
X159440282Y-107218635D01*
X158303252Y-106798534D01*
X157212920Y-106381031D01*
X156397758Y-106055096D01*
X155511882Y-105705143D01*
X154592379Y-105367089D01*
X153765965Y-105086339D01*
X153302024Y-104945808D01*
X152302341Y-104624645D01*
X151636437Y-104308043D01*
X151306253Y-103997046D01*
X151267583Y-103850628D01*
X151170579Y-103640538D01*
X150912662Y-103240831D01*
X150543476Y-102717096D01*
X150112664Y-102134918D01*
X149669868Y-101559883D01*
X149264733Y-101057577D01*
X148946900Y-100693587D01*
X148766014Y-100533499D01*
X148754971Y-100531083D01*
X148587291Y-100646490D01*
X148250239Y-100952883D01*
X147802108Y-101390520D01*
X147301188Y-101899659D01*
X146805770Y-102420558D01*
X146374148Y-102893475D01*
X146064611Y-103258668D01*
X145975439Y-103379776D01*
X145705716Y-103625045D01*
X145185205Y-103903324D01*
X144382436Y-104229965D01*
X143814059Y-104434105D01*
X141606559Y-105337300D01*
X139406621Y-106514027D01*
X137187283Y-107980942D01*
X134921580Y-109754702D01*
X134205215Y-110369798D01*
X133652848Y-110853642D01*
X134078215Y-111735387D01*
X134366981Y-112381942D01*
X134480632Y-112787445D01*
X134422830Y-112998482D01*
X134197237Y-113061638D01*
X134182458Y-113061750D01*
X133913961Y-112943912D01*
X133543614Y-112654205D01*
X133170750Y-112288338D01*
X132894698Y-111942021D01*
X132810250Y-111739569D01*
X132703058Y-111561842D01*
X132421399Y-111213461D01*
X132025143Y-110768274D01*
X132005917Y-110747514D01*
X131301087Y-110094718D01*
X130596086Y-109706615D01*
X129771451Y-109530937D01*
X129167824Y-109505750D01*
X128646415Y-109528558D01*
X128267600Y-109635958D01*
X127897701Y-109886409D01*
X127522227Y-110225416D01*
X127098218Y-110657124D01*
X126836428Y-111044599D01*
X126668097Y-111520433D01*
X126543595Y-112112542D01*
X126471939Y-112703130D01*
X126428310Y-113486897D01*
X126411508Y-114380079D01*
X125143200Y-114380079D01*
X125142287Y-114335600D01*
X125154167Y-113375362D01*
X125209355Y-112631755D01*
X125323377Y-111983885D01*
X125511759Y-111310857D01*
X125543399Y-111212511D01*
X125786141Y-110528660D01*
X126032449Y-110047503D01*
X126366926Y-109642902D01*
X126874175Y-109188722D01*
X126934708Y-109138178D01*
X127917165Y-108320416D01*
X129268670Y-108320417D01*
X130057675Y-108343161D01*
X130642575Y-108428420D01*
X131155906Y-108601731D01*
X131449425Y-108740629D01*
X131968643Y-109045655D01*
X132385161Y-109363864D01*
X132530929Y-109520986D01*
X132742403Y-109742021D01*
X132979010Y-109744248D01*
X133329904Y-109515571D01*
X133480248Y-109392190D01*
X133709455Y-109210060D01*
X134149516Y-108868738D01*
X134741269Y-108413449D01*
X135425552Y-107889417D01*
X136143201Y-107341867D01*
X136835056Y-106816024D01*
X137441952Y-106357112D01*
X137890250Y-106021116D01*
X138397282Y-105693144D01*
X139126219Y-105284578D01*
X139999945Y-104832293D01*
X140941346Y-104373165D01*
X141873306Y-103944071D01*
X142718711Y-103581886D01*
X143400446Y-103323488D01*
X143739614Y-103223966D01*
X144101318Y-103131124D01*
X144412444Y-103006256D01*
X144725237Y-102808349D01*
X145091942Y-102496386D01*
X145564803Y-102029351D01*
X146196065Y-101366230D01*
X146447030Y-101098466D01*
X147230562Y-100276350D01*
X147836962Y-99694057D01*
X148309917Y-99334637D01*
X148693117Y-99181141D01*
X149030252Y-99216617D01*
G36*
X149030252Y-99216617D02*
G01*
X149365011Y-99424117D01*
X149741083Y-99786689D01*
X149764421Y-99811417D01*
X150194622Y-100292348D01*
X150674384Y-100865775D01*
X151153993Y-101467258D01*
X151583734Y-102032360D01*
X151913894Y-102496644D01*
X152094759Y-102795671D01*
X152114250Y-102857182D01*
X152262478Y-103147824D01*
X152715375Y-103440356D01*
X153485255Y-103741207D01*
X154237637Y-103965183D01*
X155006583Y-104192211D01*
X155733216Y-104436660D01*
X156296593Y-104656863D01*
X156438971Y-104723606D01*
X156825314Y-104895502D01*
X157461011Y-105150837D01*
X158275348Y-105462366D01*
X159197609Y-105802841D01*
X159818917Y-106025866D01*
X161549966Y-106666670D01*
X163054437Y-107287456D01*
X164437554Y-107936052D01*
X165804539Y-108660283D01*
X166543587Y-109082455D01*
X167274403Y-109485428D01*
X168031117Y-109864901D01*
X168672132Y-110150591D01*
X168780267Y-110192644D01*
X169710943Y-110540854D01*
X171707596Y-109758662D01*
X172533496Y-109433601D01*
X173301982Y-109128423D01*
X173926694Y-108877594D01*
X174318580Y-108716713D01*
X174833029Y-108535317D01*
X175212366Y-108511429D01*
X175477254Y-108678498D01*
X175648359Y-109069973D01*
X175746346Y-109719303D01*
X175791880Y-110659935D01*
X175799901Y-111114417D01*
X175757727Y-112658611D01*
X175578218Y-113988781D01*
X175245103Y-115207191D01*
X175077308Y-115656040D01*
X174829191Y-116384183D01*
X174629884Y-117160729D01*
X174547606Y-117634147D01*
X174451711Y-118278476D01*
X174331465Y-118877603D01*
X174268537Y-119117056D01*
X174188446Y-119510985D01*
X174272008Y-119825323D01*
X174559865Y-120215266D01*
X174922848Y-120734534D01*
X175363421Y-121500870D01*
X175846994Y-122441794D01*
X176338978Y-123484824D01*
X176804785Y-124557479D01*
X177209827Y-125587280D01*
X177442719Y-126256280D01*
X177901456Y-127970709D01*
X178127307Y-129515947D01*
X178240175Y-131011083D01*
X177834879Y-130998676D01*
X177489297Y-130949963D01*
X176921544Y-130831003D01*
X176235193Y-130664193D01*
X175990250Y-130599760D01*
X175120722Y-130372266D01*
X174175303Y-130134202D01*
X173346069Y-129933853D01*
X173280917Y-129918676D01*
X172576847Y-129746192D01*
X171679084Y-129513181D01*
X170718967Y-129254230D01*
X170063583Y-129071363D01*
X169178310Y-128827591D01*
X168297949Y-128598017D01*
X167537469Y-128411960D01*
X167100250Y-128315661D01*
X166365621Y-128157319D01*
X165606213Y-127976010D01*
X165237583Y-127879575D01*
X164233844Y-127616867D01*
X163221954Y-127375727D01*
X162303957Y-127178984D01*
X161581894Y-127049465D01*
X161437567Y-127029458D01*
X160699257Y-126909158D01*
X159697682Y-126704298D01*
X158493872Y-126427929D01*
X157617583Y-126212534D01*
X157067912Y-126078724D01*
X156284645Y-125894046D01*
X155364788Y-125681110D01*
X154405346Y-125462524D01*
X154230917Y-125423196D01*
X152596038Y-125054345D01*
X151254026Y-124749214D01*
X150167005Y-124498686D01*
X149297100Y-124293641D01*
X148606434Y-124124963D01*
X148057133Y-123983534D01*
X147611322Y-123860236D01*
X147231126Y-123745951D01*
X147128370Y-123713396D01*
X146533233Y-123540781D01*
X146022627Y-123423811D01*
X145763610Y-123391083D01*
X145439253Y-123352005D01*
X144888320Y-123247951D01*
X144212128Y-123098695D01*
X143976156Y-123042254D01*
X141322990Y-122400467D01*
X138401500Y-121704504D01*
X136874250Y-121344306D01*
X135903552Y-121114271D01*
X134721646Y-120831379D01*
X133446121Y-120523933D01*
X132194568Y-120220236D01*
X131540250Y-120060455D01*
X130467939Y-119805886D01*
X129411707Y-119569458D01*
X128454155Y-119368635D01*
X127677885Y-119220883D01*
X127252701Y-119153884D01*
X126630770Y-119064769D01*
X126142393Y-118978585D01*
X125883503Y-118912497D01*
X125872831Y-118906993D01*
X125724221Y-118660780D01*
X125572243Y-118145208D01*
X125427923Y-117429279D01*
X125302288Y-116581995D01*
X125206366Y-115672357D01*
X125151183Y-114769367D01*
X125143200Y-114380079D01*
X126411508Y-114380079D01*
X126420335Y-115298912D01*
X126453593Y-116159630D01*
X126510083Y-116878470D01*
X126588607Y-117371665D01*
X126620297Y-117473535D01*
X126848054Y-117657413D01*
X127364563Y-117857702D01*
X128031954Y-118035137D01*
X128805497Y-118213643D01*
X129746828Y-118433545D01*
X130694459Y-118657048D01*
X131032250Y-118737356D01*
X131544737Y-118859031D01*
X132345475Y-119048471D01*
X133393046Y-119295907D01*
X134646030Y-119591569D01*
X136063006Y-119925685D01*
X137602557Y-120288486D01*
X139223262Y-120670202D01*
X140684250Y-121014124D01*
X142312100Y-121397412D01*
X143870469Y-121764684D01*
X145321963Y-122107105D01*
X146629185Y-122415836D01*
X147754741Y-122682040D01*
X148661236Y-122896880D01*
X149311274Y-123051520D01*
X149658917Y-123135033D01*
X151115678Y-123484912D01*
X152584205Y-123827478D01*
X154021696Y-124153601D01*
X155385350Y-124454149D01*
X156632365Y-124719992D01*
X157719940Y-124941999D01*
X158605271Y-125111039D01*
X159245559Y-125217982D01*
X159590646Y-125253750D01*
X159680863Y-125135472D01*
X159721837Y-124760227D01*
X159715401Y-124097401D01*
X159691079Y-123576580D01*
X159651510Y-121892718D01*
X159742165Y-120488381D01*
X159973571Y-119326287D01*
X160356253Y-118369153D01*
X160900738Y-117579695D01*
X161557360Y-116966538D01*
X162454067Y-116405380D01*
X163354305Y-116138472D01*
X164336970Y-116152185D01*
X165181927Y-116340285D01*
X166194264Y-116725174D01*
X166945310Y-117237162D01*
X167504215Y-117929159D01*
X167682034Y-118253198D01*
X167968828Y-118795203D01*
X168239490Y-119250031D01*
X168372123Y-119438531D01*
X168685156Y-119876650D01*
X168942761Y-120334206D01*
X169096359Y-120712801D01*
X169099566Y-120911990D01*
X168773608Y-121022547D01*
X168346299Y-120846904D01*
X167879791Y-120421858D01*
X167568655Y-120043610D01*
X167380142Y-119768369D01*
X167354250Y-119701065D01*
X167249049Y-119520927D01*
X166974762Y-119172460D01*
X166634583Y-118780471D01*
X165823550Y-118048410D01*
X164958021Y-117621431D01*
X163967208Y-117466340D01*
X163828039Y-117464417D01*
X163024265Y-117608235D01*
X162268710Y-117995340D01*
X161655090Y-118559204D01*
X161277120Y-119233301D01*
X161260761Y-119286878D01*
X161109025Y-119994643D01*
X161005823Y-120844540D01*
X160949671Y-121772081D01*
X160939088Y-122712777D01*
X160972589Y-123602142D01*
X161048693Y-124375686D01*
X161165917Y-124968921D01*
X161322778Y-125317360D01*
X161400753Y-125375419D01*
X161768578Y-125569964D01*
X161952780Y-125706318D01*
X162200944Y-125818914D01*
X162720466Y-125987024D01*
X163451882Y-126193693D01*
X164335728Y-126421968D01*
X165141529Y-126615477D01*
X166354042Y-126906677D01*
X167699815Y-127245732D01*
X169041373Y-127597068D01*
X170241240Y-127925109D01*
X170627666Y-128035165D01*
X171839461Y-128374744D01*
X173022303Y-128686731D01*
X174124798Y-128959278D01*
X175095552Y-129180536D01*
X175883170Y-129338657D01*
X176436258Y-129421792D01*
X176667583Y-129427614D01*
X176835324Y-129298812D01*
X176880774Y-128937158D01*
X176869450Y-128719093D01*
X176757973Y-128144613D01*
X176511102Y-127341146D01*
X176158219Y-126375582D01*
X175728703Y-125314816D01*
X175251934Y-124225739D01*
X174757291Y-123175244D01*
X174274153Y-122230223D01*
X173831902Y-121457569D01*
X173459915Y-120924175D01*
X173430992Y-120890311D01*
X172960737Y-120198977D01*
X172810032Y-119549824D01*
X172916438Y-119027463D01*
X173041051Y-118614831D01*
X173180623Y-118011057D01*
X173284154Y-117464417D01*
X173442047Y-116753120D01*
X173685174Y-115903230D01*
X173963835Y-115086782D01*
X173993486Y-115009083D01*
X174252731Y-114279614D01*
X174422280Y-113621196D01*
X174526585Y-112904815D01*
X174590101Y-112001457D01*
X174598801Y-111815526D01*
X174680614Y-109976636D01*
X174277099Y-110104474D01*
X173924342Y-110231967D01*
X173374117Y-110447711D01*
X172740399Y-110706927D01*
X172688250Y-110728727D01*
X171935599Y-111038391D01*
X171145750Y-111354716D01*
X170551146Y-111585664D01*
X169599376Y-111946185D01*
X168349813Y-111397045D01*
X167730734Y-111104948D01*
X166916131Y-110692109D01*
X166002732Y-110208914D01*
X165087264Y-109705748D01*
X164898917Y-109599488D01*
X162311000Y-108301929D01*
X160478676Y-107586786D01*
X159440282Y-107218635D01*
X158303252Y-106798534D01*
X157212920Y-106381031D01*
X156397758Y-106055096D01*
X155511882Y-105705143D01*
X154592379Y-105367089D01*
X153765965Y-105086339D01*
X153302024Y-104945808D01*
X152302341Y-104624645D01*
X151636437Y-104308043D01*
X151306253Y-103997046D01*
X151267583Y-103850628D01*
X151170579Y-103640538D01*
X150912662Y-103240831D01*
X150543476Y-102717096D01*
X150112664Y-102134918D01*
X149669868Y-101559883D01*
X149264733Y-101057577D01*
X148946900Y-100693587D01*
X148766014Y-100533499D01*
X148754971Y-100531083D01*
X148587291Y-100646490D01*
X148250239Y-100952883D01*
X147802108Y-101390520D01*
X147301188Y-101899659D01*
X146805770Y-102420558D01*
X146374148Y-102893475D01*
X146064611Y-103258668D01*
X145975439Y-103379776D01*
X145705716Y-103625045D01*
X145185205Y-103903324D01*
X144382436Y-104229965D01*
X143814059Y-104434105D01*
X141606559Y-105337300D01*
X139406621Y-106514027D01*
X137187283Y-107980942D01*
X134921580Y-109754702D01*
X134205215Y-110369798D01*
X133652848Y-110853642D01*
X134078215Y-111735387D01*
X134366981Y-112381942D01*
X134480632Y-112787445D01*
X134422830Y-112998482D01*
X134197237Y-113061638D01*
X134182458Y-113061750D01*
X133913961Y-112943912D01*
X133543614Y-112654205D01*
X133170750Y-112288338D01*
X132894698Y-111942021D01*
X132810250Y-111739569D01*
X132703058Y-111561842D01*
X132421399Y-111213461D01*
X132025143Y-110768274D01*
X132005917Y-110747514D01*
X131301087Y-110094718D01*
X130596086Y-109706615D01*
X129771451Y-109530937D01*
X129167824Y-109505750D01*
X128646415Y-109528558D01*
X128267600Y-109635958D01*
X127897701Y-109886409D01*
X127522227Y-110225416D01*
X127098218Y-110657124D01*
X126836428Y-111044599D01*
X126668097Y-111520433D01*
X126543595Y-112112542D01*
X126471939Y-112703130D01*
X126428310Y-113486897D01*
X126411508Y-114380079D01*
X125143200Y-114380079D01*
X125142287Y-114335600D01*
X125154167Y-113375362D01*
X125209355Y-112631755D01*
X125323377Y-111983885D01*
X125511759Y-111310857D01*
X125543399Y-111212511D01*
X125786141Y-110528660D01*
X126032449Y-110047503D01*
X126366926Y-109642902D01*
X126874175Y-109188722D01*
X126934708Y-109138178D01*
X127917165Y-108320416D01*
X129268670Y-108320417D01*
X130057675Y-108343161D01*
X130642575Y-108428420D01*
X131155906Y-108601731D01*
X131449425Y-108740629D01*
X131968643Y-109045655D01*
X132385161Y-109363864D01*
X132530929Y-109520986D01*
X132742403Y-109742021D01*
X132979010Y-109744248D01*
X133329904Y-109515571D01*
X133480248Y-109392190D01*
X133709455Y-109210060D01*
X134149516Y-108868738D01*
X134741269Y-108413449D01*
X135425552Y-107889417D01*
X136143201Y-107341867D01*
X136835056Y-106816024D01*
X137441952Y-106357112D01*
X137890250Y-106021116D01*
X138397282Y-105693144D01*
X139126219Y-105284578D01*
X139999945Y-104832293D01*
X140941346Y-104373165D01*
X141873306Y-103944071D01*
X142718711Y-103581886D01*
X143400446Y-103323488D01*
X143739614Y-103223966D01*
X144101318Y-103131124D01*
X144412444Y-103006256D01*
X144725237Y-102808349D01*
X145091942Y-102496386D01*
X145564803Y-102029351D01*
X146196065Y-101366230D01*
X146447030Y-101098466D01*
X147230562Y-100276350D01*
X147836962Y-99694057D01*
X148309917Y-99334637D01*
X148693117Y-99181141D01*
X149030252Y-99216617D01*
G37*
X162659607Y-120639975D02*
X162880213Y-120972958D01*
X162816128Y-121436829D01*
X162810776Y-121448764D01*
X162502264Y-121779031D01*
X162072437Y-121868523D01*
X161660420Y-121691878D01*
X161630783Y-121663883D01*
X161433192Y-121278963D01*
X161509054Y-120892614D01*
X161808699Y-120604835D01*
X162202716Y-120512417D01*
X162659607Y-120639975D01*
G36*
X162659607Y-120639975D02*
G01*
X162880213Y-120972958D01*
X162816128Y-121436829D01*
X162810776Y-121448764D01*
X162502264Y-121779031D01*
X162072437Y-121868523D01*
X161660420Y-121691878D01*
X161630783Y-121663883D01*
X161433192Y-121278963D01*
X161509054Y-120892614D01*
X161808699Y-120604835D01*
X162202716Y-120512417D01*
X162659607Y-120639975D01*
G37*
X164552918Y-120899203D02*
X164746567Y-120980676D01*
X165056917Y-121349095D01*
X165268249Y-121900021D01*
X165322250Y-122334434D01*
X165192361Y-122836212D01*
X164861079Y-123237260D01*
X164415980Y-123492255D01*
X163944640Y-123555875D01*
X163534637Y-123382800D01*
X163454920Y-123300798D01*
X163285189Y-122931164D01*
X163178926Y-122388803D01*
X163146207Y-121807419D01*
X163197107Y-121320715D01*
X163289524Y-121105958D01*
X163609509Y-120929771D01*
X164087123Y-120855996D01*
X164552918Y-120899203D01*
G36*
X164552918Y-120899203D02*
G01*
X164746567Y-120980676D01*
X165056917Y-121349095D01*
X165268249Y-121900021D01*
X165322250Y-122334434D01*
X165192361Y-122836212D01*
X164861079Y-123237260D01*
X164415980Y-123492255D01*
X163944640Y-123555875D01*
X163534637Y-123382800D01*
X163454920Y-123300798D01*
X163285189Y-122931164D01*
X163178926Y-122388803D01*
X163146207Y-121807419D01*
X163197107Y-121320715D01*
X163289524Y-121105958D01*
X163609509Y-120929771D01*
X164087123Y-120855996D01*
X164552918Y-120899203D01*
G37*
X129987516Y-112928495D02*
X130416909Y-113277498D01*
X130700410Y-113815949D01*
X130778250Y-114347414D01*
X130648219Y-114834254D01*
X130316968Y-115232427D01*
X129872759Y-115495233D01*
X129403855Y-115575970D01*
X128998520Y-115427939D01*
X128907064Y-115337485D01*
X128768349Y-115023688D01*
X128654407Y-114511484D01*
X128612749Y-114168885D01*
X128585153Y-113626338D01*
X128638651Y-113306718D01*
X128805663Y-113097804D01*
X128952493Y-112992803D01*
X129477591Y-112817432D01*
X129987516Y-112928495D01*
G36*
X129987516Y-112928495D02*
G01*
X130416909Y-113277498D01*
X130700410Y-113815949D01*
X130778250Y-114347414D01*
X130648219Y-114834254D01*
X130316968Y-115232427D01*
X129872759Y-115495233D01*
X129403855Y-115575970D01*
X128998520Y-115427939D01*
X128907064Y-115337485D01*
X128768349Y-115023688D01*
X128654407Y-114511484D01*
X128612749Y-114168885D01*
X128585153Y-113626338D01*
X128638651Y-113306718D01*
X128805663Y-113097804D01*
X128952493Y-112992803D01*
X129477591Y-112817432D01*
X129987516Y-112928495D01*
G37*
X145440265Y-115248064D02*
X145728103Y-115494645D01*
X145762070Y-115559417D01*
X145963396Y-115825912D01*
X146324296Y-115931124D01*
X146572361Y-115940417D01*
X147117141Y-115869378D01*
X147586120Y-115696166D01*
X147621519Y-115674382D01*
X148063106Y-115528973D01*
X148457515Y-115627321D01*
X148698012Y-115926839D01*
X148727583Y-116115708D01*
X148842218Y-116473994D01*
X149084908Y-116805742D01*
X149398206Y-117037813D01*
X149776231Y-117093718D01*
X150123674Y-117054100D01*
X150663699Y-117021919D01*
X151027420Y-117155689D01*
X151121016Y-117231020D01*
X151390677Y-117539176D01*
X151377072Y-117796580D01*
X151170821Y-118044988D01*
X150816686Y-118212497D01*
X150253261Y-118295023D01*
X149599115Y-118292470D01*
X148972813Y-118204743D01*
X148520174Y-118047126D01*
X148131739Y-117767109D01*
X147894023Y-117488907D01*
X147739184Y-117311205D01*
X147464147Y-117236465D01*
X146974522Y-117244796D01*
X146799311Y-117258206D01*
X145942972Y-117217919D01*
X145246328Y-116967816D01*
X144754735Y-116543180D01*
X144513551Y-115979296D01*
X144523907Y-115488143D01*
X144711532Y-115237523D01*
X145059196Y-115159927D01*
X145440265Y-115248064D01*
G36*
X145440265Y-115248064D02*
G01*
X145728103Y-115494645D01*
X145762070Y-115559417D01*
X145963396Y-115825912D01*
X146324296Y-115931124D01*
X146572361Y-115940417D01*
X147117141Y-115869378D01*
X147586120Y-115696166D01*
X147621519Y-115674382D01*
X148063106Y-115528973D01*
X148457515Y-115627321D01*
X148698012Y-115926839D01*
X148727583Y-116115708D01*
X148842218Y-116473994D01*
X149084908Y-116805742D01*
X149398206Y-117037813D01*
X149776231Y-117093718D01*
X150123674Y-117054100D01*
X150663699Y-117021919D01*
X151027420Y-117155689D01*
X151121016Y-117231020D01*
X151390677Y-117539176D01*
X151377072Y-117796580D01*
X151170821Y-118044988D01*
X150816686Y-118212497D01*
X150253261Y-118295023D01*
X149599115Y-118292470D01*
X148972813Y-118204743D01*
X148520174Y-118047126D01*
X148131739Y-117767109D01*
X147894023Y-117488907D01*
X147739184Y-117311205D01*
X147464147Y-117236465D01*
X146974522Y-117244796D01*
X146799311Y-117258206D01*
X145942972Y-117217919D01*
X145246328Y-116967816D01*
X144754735Y-116543180D01*
X144513551Y-115979296D01*
X144523907Y-115488143D01*
X144711532Y-115237523D01*
X145059196Y-115159927D01*
X145440265Y-115248064D01*
G37*
D13*
%TO.C,LED1*%
X124012500Y-103368750D02*
X123412500Y-103368750D01*
X124012500Y-102768750D01*
X124012500Y-103368750D01*
G36*
X124012500Y-103368750D02*
G01*
X123412500Y-103368750D01*
X124012500Y-102768750D01*
X124012500Y-103368750D01*
G37*
%TO.C,LED4*%
X158931250Y-143287500D02*
X158331250Y-142687500D01*
X158931250Y-142687500D01*
X158931250Y-143287500D01*
G36*
X158931250Y-143287500D02*
G01*
X158331250Y-142687500D01*
X158931250Y-142687500D01*
X158931250Y-143287500D01*
G37*
%TO.C,LED5*%
X179200000Y-127418750D02*
X179200000Y-126818750D01*
X179800000Y-126818750D01*
X179200000Y-127418750D01*
G36*
X179200000Y-127418750D02*
G01*
X179200000Y-126818750D01*
X179800000Y-126818750D01*
X179200000Y-127418750D01*
G37*
%TO.C,LED6*%
X179200000Y-108368750D02*
X179200000Y-107768750D01*
X179800000Y-107768750D01*
X179200000Y-108368750D01*
G36*
X179200000Y-108368750D02*
G01*
X179200000Y-107768750D01*
X179800000Y-107768750D01*
X179200000Y-108368750D01*
G37*
%TO.C,LED7*%
X179012500Y-68450000D02*
X178412500Y-68450000D01*
X178412500Y-67850000D01*
X179012500Y-68450000D01*
G36*
X179012500Y-68450000D02*
G01*
X178412500Y-68450000D01*
X178412500Y-67850000D01*
X179012500Y-68450000D01*
G37*
%TO.C,LED8*%
X164725000Y-68450000D02*
X164125000Y-68450000D01*
X164125000Y-67850000D01*
X164725000Y-68450000D01*
G36*
X164725000Y-68450000D02*
G01*
X164125000Y-68450000D01*
X164125000Y-67850000D01*
X164725000Y-68450000D01*
G37*
%TO.C,LED3*%
X139881250Y-143287500D02*
X139281250Y-142687500D01*
X139881250Y-142687500D01*
X139881250Y-143287500D01*
G36*
X139881250Y-143287500D02*
G01*
X139281250Y-142687500D01*
X139881250Y-142687500D01*
X139881250Y-143287500D01*
G37*
%TO.C,LED2*%
X124012500Y-122418750D02*
X123412500Y-122418750D01*
X124012500Y-121818750D01*
X124012500Y-122418750D01*
G36*
X124012500Y-122418750D02*
G01*
X123412500Y-122418750D01*
X124012500Y-121818750D01*
X124012500Y-122418750D01*
G37*
D14*
%TO.C,SW1*%
X168656250Y-82893750D02*
X164556250Y-82893750D01*
X164556250Y-71093750D02*
X164556250Y-82893750D01*
X176756250Y-82893750D02*
X172656250Y-82893750D01*
X163456250Y-72893750D02*
X163156250Y-73193750D01*
X163156250Y-73193750D02*
X162856250Y-72893750D01*
X172656250Y-71093750D02*
X176756250Y-71093750D01*
X176756250Y-75693750D02*
X176756250Y-78293750D01*
X170656250Y-76493750D02*
X170656250Y-77493750D01*
X162856250Y-72893750D02*
X163456250Y-72893750D01*
X168656250Y-71093750D02*
X164556250Y-71093750D01*
X176756250Y-80493750D02*
X176756250Y-82893750D01*
X170156250Y-76993750D02*
X171156250Y-76993750D01*
X176756250Y-71093750D02*
X176756250Y-73493750D01*
X173656250Y-76993750D02*
G75*
G02*
X167656250Y-76993750I-3000000J0D01*
G01*
X167656250Y-76993750D02*
G75*
G02*
X173656250Y-76993750I3000000J0D01*
G01*
%TO.C,R2*%
X133970000Y-78707500D02*
X137810000Y-78707500D01*
X137810000Y-78707500D02*
X137810000Y-76867500D01*
X133020000Y-77787500D02*
X133970000Y-77787500D01*
X138760000Y-77787500D02*
X137810000Y-77787500D01*
X133970000Y-76867500D02*
X133970000Y-78707500D01*
X137810000Y-76867500D02*
X133970000Y-76867500D01*
%TO.C,R1*%
X133020000Y-75406250D02*
X133970000Y-75406250D01*
X137810000Y-74486250D02*
X133970000Y-74486250D01*
X133970000Y-76326250D02*
X137810000Y-76326250D01*
X138760000Y-75406250D02*
X137810000Y-75406250D01*
X133970000Y-74486250D02*
X133970000Y-76326250D01*
X137810000Y-76326250D02*
X137810000Y-74486250D01*
%TD*%
D15*
%TO.C,OL1*%
X160337500Y-80803750D03*
X160337500Y-78263750D03*
X160337500Y-75723750D03*
X160337500Y-73183750D03*
%TD*%
D16*
%TO.C,U1*%
X126523750Y-84842350D03*
D17*
X129063750Y-84385150D03*
X131603750Y-84842350D03*
X134143750Y-84385150D03*
X136683750Y-84842350D03*
X139223750Y-84385150D03*
X141763750Y-84842350D03*
X144303750Y-84385150D03*
X146843750Y-84842350D03*
X149383750Y-84385150D03*
X151923750Y-84842350D03*
X154463750Y-84385150D03*
X154463750Y-69602350D03*
X151923750Y-69145150D03*
X149383750Y-69602350D03*
X146843750Y-69145150D03*
X144303750Y-69602350D03*
X141763750Y-69145150D03*
X139223750Y-69602350D03*
X136683750Y-69145150D03*
X134143750Y-69602350D03*
X131603750Y-69145150D03*
X129063750Y-69602350D03*
X126523750Y-69145150D03*
%TD*%
M02*
