M48
; DRILL file {KiCad 9.0.3} date 2025-07-17T06:47:18+0800
; FORMAT={-:-/ absolute / inch / decimal}
; #@! TF.CreationDate,2025-07-17T06:47:18+08:00
; #@! TF.GenerationSoftware,Kicad,Pcbnew,9.0.3
; #@! TF.FileFunction,MixedPlating,1,2
FMAT,2
INCH
; #@! TA.AperFunction,Plated,PTH,ViaDrill
T1C0.0157
; #@! TA.AperFunction,Plated,PTH,ComponentDrill
T2C0.0157
; #@! TA.AperFunction,Plated,PTH,ComponentDrill
T3C0.0276
; #@! TA.AperFunction,Plated,PTH,ComponentDrill
T4C0.0315
; #@! TA.AperFunction,Plated,PTH,ComponentDrill
T5C0.0320
; #@! TA.AperFunction,Plated,PTH,ComponentDrill
T6C0.0394
; #@! TA.AperFunction,Plated,PTH,ComponentDrill
T7C0.0430
; #@! TA.AperFunction,Plated,PTH,ComponentDrill
T8C0.0579
; #@! TA.AperFunction,Plated,PTH,ComponentDrill
T9C0.0906
; #@! TA.AperFunction,NonPlated,NPTH,ComponentDrill
T10C0.0591
; #@! TA.AperFunction,NonPlated,NPTH,ComponentDrill
T11C0.0689
; #@! TA.AperFunction,NonPlated,NPTH,ComponentDrill
T12C0.1570
%
G90
G05
T1
X5.665Y-3.11
X5.7812Y-2.9062
X5.8438Y-4.2188
X5.875Y-3.4375
X5.8812Y-2.9625
X6.195Y-2.71
X6.195Y-3.13
X6.2037Y-2.7812
X6.26Y-2.91
X6.4062Y-5.125
X6.4688Y-4.375
X6.5938Y-4.2812
X6.84Y-2.825
X6.84Y-3.22
X6.9062Y-3.9688
X6.9062Y-4.3125
X7.0Y-4.0
X7.05Y-3.55
T2
X5.1597Y-4.9062
X5.177Y-4.8645
X5.177Y-4.948
X5.2188Y-4.8472
X5.2188Y-4.9653
X5.2605Y-4.8645
X5.2605Y-4.948
X5.2778Y-4.9062
X5.5009Y-3.48
X5.5183Y-3.4383
X5.5183Y-3.5217
X5.56Y-3.4209
X5.56Y-3.5391
X5.6017Y-3.4383
X5.6017Y-3.5217
X5.6191Y-3.48
X6.6597Y-4.9062
X6.677Y-4.8645
X6.677Y-4.948
X6.7188Y-4.8472
X6.7188Y-4.9653
X6.7605Y-4.8645
X6.7605Y-4.948
X6.7778Y-4.9062
X6.9097Y-3.375
X6.927Y-3.3333
X6.927Y-3.4167
X6.9688Y-3.3159
X6.9688Y-3.4341
X7.0105Y-3.3333
X7.0105Y-3.4167
X7.0278Y-3.375
T3
X5.2Y-2.9688
X5.2Y-3.0625
X5.2812Y-4.125
X5.5Y-2.9688
X5.5Y-3.0625
X5.5812Y-4.125
T4
X5.5625Y-3.625
X5.5625Y-3.925
X5.5625Y-4.375
X5.5625Y-4.675
X5.5625Y-5.125
X5.5625Y-5.425
X6.3125Y-3.625
X6.3125Y-3.925
X6.3125Y-4.375
X6.3125Y-4.675
X6.3125Y-5.125
X6.3125Y-5.425
X7.0312Y-3.625
X7.0312Y-3.925
X7.0312Y-4.375
X7.0312Y-4.675
X7.0312Y-5.125
X7.0312Y-5.425
T5
X6.3125Y-2.8813
X6.3125Y-2.9812
X6.3125Y-3.0812
X6.3125Y-3.1812
T6
X6.4235Y-2.9328
X6.4235Y-3.0312
X6.4235Y-3.1297
X6.9943Y-2.9328
X6.9943Y-3.1297
T7
X4.9813Y-2.7222
X4.9813Y-3.3402
X5.0812Y-2.7403
X5.0812Y-3.3222
X5.1812Y-2.7222
X5.1812Y-3.3402
X5.2812Y-2.7403
X5.2812Y-3.3222
X5.3812Y-2.7222
X5.3812Y-3.3402
X5.4813Y-2.7403
X5.4813Y-3.3222
X5.5812Y-2.7222
X5.5812Y-3.3402
X5.6812Y-2.7403
X5.6812Y-3.3222
X5.7812Y-2.7222
X5.7812Y-3.3402
X5.8812Y-2.7403
X5.8812Y-3.3222
X5.9813Y-2.7222
X5.9813Y-3.3402
X6.0812Y-2.7403
X6.0812Y-3.3222
T8
X5.0687Y-3.6812
X5.0687Y-4.4312
X5.0687Y-5.1812
X5.1203Y-3.6238
X5.1203Y-4.3738
X5.1203Y-5.1238
X5.3172Y-3.6041
X5.3172Y-4.3541
X5.3172Y-5.1041
X5.3187Y-3.5812
X5.3187Y-4.3312
X5.3187Y-5.0812
X5.8187Y-3.6812
X5.8187Y-4.4312
X5.8187Y-5.1812
X5.8703Y-3.6238
X5.8703Y-4.3738
X5.8703Y-5.1238
X6.0672Y-3.6041
X6.0672Y-4.3541
X6.0672Y-5.1041
X6.0687Y-3.5812
X6.0687Y-4.3312
X6.0687Y-5.0812
X6.5687Y-3.6812
X6.5687Y-4.4312
X6.5687Y-5.1812
X6.6203Y-3.6238
X6.6203Y-4.3738
X6.6203Y-5.1238
X6.8172Y-3.6041
X6.8172Y-4.3541
X6.8172Y-5.1041
X6.8187Y-3.5812
X6.8187Y-4.3312
X6.8187Y-5.0812
T9
X5.2188Y-4.9062
X5.56Y-3.48
X6.7188Y-4.9062
X6.9688Y-3.375
T11
X5.0187Y-3.7812
X5.0187Y-4.5312
X5.0187Y-5.2812
X5.4188Y-3.7812
X5.4188Y-4.5312
X5.4188Y-5.2812
X5.7687Y-3.7812
X5.7687Y-4.5312
X5.7687Y-5.2812
X6.1688Y-3.7812
X6.1688Y-4.5312
X6.1688Y-5.2812
X6.5187Y-3.7812
X6.5187Y-4.5312
X6.5187Y-5.2812
X6.9188Y-3.7812
X6.9188Y-4.5312
X6.9188Y-5.2812
T12
X5.2188Y-3.7812
X5.2188Y-4.5312
X5.2188Y-5.2812
X5.9688Y-3.7812
X5.9688Y-4.5312
X5.9688Y-5.2812
X6.7188Y-3.7812
X6.7188Y-4.5312
X6.7188Y-5.2812
T10
G00X6.6932Y-2.8108
M15
G01X6.7443Y-2.8108
M16
G05
G00X6.6932Y-3.2517
M15
G01X6.7443Y-3.2517
M16
G05
M30
