%TF.GenerationSoftware,KiCad,Pcbnew,9.0.3*%
%TF.CreationDate,2025-07-17T06:47:07+08:00*%
%TF.ProjectId,bongopad,626f6e67-6f70-4616-942e-6b696361645f,v1.1*%
%TF.SameCoordinates,Original*%
%TF.FileFunction,Soldermask,Top*%
%TF.FilePolarity,Negative*%
%FSLAX46Y46*%
G04 Gerber Fmt 4.6, Leading zero omitted, Abs format (unit mm)*
G04 Created by KiCad (PCBNEW 9.0.3) date 2025-07-17 06:47:07*
%MOMM*%
%LPD*%
G01*
G04 APERTURE LIST*
G04 Aperture macros list*
%AMRoundRect*
0 Rectangle with rounded corners*
0 $1 Rounding radius*
0 $2 $3 $4 $5 $6 $7 $8 $9 X,Y pos of 4 corners*
0 Add a 4 corners polygon primitive as box body*
4,1,4,$2,$3,$4,$5,$6,$7,$8,$9,$2,$3,0*
0 Add four circle primitives for the rounded corners*
1,1,$1+$1,$2,$3*
1,1,$1+$1,$4,$5*
1,1,$1+$1,$6,$7*
1,1,$1+$1,$8,$9*
0 Add four rect primitives between the rounded corners*
20,1,$1+$1,$2,$3,$4,$5,0*
20,1,$1+$1,$4,$5,$6,$7,0*
20,1,$1+$1,$6,$7,$8,$9,0*
20,1,$1+$1,$8,$9,$2,$3,0*%
G04 Aperture macros list end*
%ADD10R,1.752600X1.752600*%
%ADD11C,1.752600*%
%ADD12C,3.987800*%
%ADD13C,1.750000*%
%ADD14R,0.820000X1.700000*%
%ADD15RoundRect,0.205000X0.205000X-0.645000X0.205000X0.645000X-0.205000X0.645000X-0.205000X-0.645000X0*%
%ADD16R,1.700000X0.820000*%
%ADD17RoundRect,0.205000X0.645000X0.205000X-0.645000X0.205000X-0.645000X-0.205000X0.645000X-0.205000X0*%
%ADD18RoundRect,0.205000X-0.205000X0.645000X-0.205000X-0.645000X0.205000X-0.645000X0.205000X0.645000X0*%
%ADD19RoundRect,0.205000X-0.645000X-0.205000X0.645000X-0.205000X0.645000X0.205000X-0.645000X0.205000X0*%
%ADD20R,3.200000X2.000000*%
%ADD21R,2.000000X2.000000*%
%ADD22C,2.000000*%
%ADD23C,1.400000*%
%ADD24O,1.400000X1.400000*%
%ADD25R,1.600000X1.600000*%
%ADD26O,1.600000X1.600000*%
%ADD27C,0.500000*%
%ADD28C,4.000000*%
G04 APERTURE END LIST*
D10*
%TO.C,U1*%
X126523750Y-84842350D03*
D11*
X129063750Y-84385150D03*
X131603750Y-84842350D03*
X134143750Y-84385150D03*
X136683750Y-84842350D03*
X139223750Y-84385150D03*
X141763750Y-84842350D03*
X144303750Y-84385150D03*
X146843750Y-84842350D03*
X149383750Y-84385150D03*
X151923750Y-84842350D03*
X154463750Y-84385150D03*
X154463750Y-69602350D03*
X151923750Y-69145150D03*
X149383750Y-69602350D03*
X146843750Y-69145150D03*
X144303750Y-69602350D03*
X141763750Y-69145150D03*
X139223750Y-69602350D03*
X136683750Y-69145150D03*
X134143750Y-69602350D03*
X131603750Y-69145150D03*
X129063750Y-69602350D03*
X126523750Y-69145150D03*
%TD*%
D12*
%TO.C,MX8*%
X170656250Y-115093750D03*
D13*
X165576250Y-115093750D03*
X175736250Y-115093750D03*
%TD*%
%TO.C,MX7*%
X165576250Y-96043750D03*
X175736250Y-96043750D03*
D12*
X170656250Y-96043750D03*
%TD*%
%TO.C,MX6*%
X151606250Y-134143750D03*
D13*
X156686250Y-134143750D03*
X146526250Y-134143750D03*
%TD*%
%TO.C,MX5*%
X146526250Y-115093750D03*
X156686250Y-115093750D03*
D12*
X151606250Y-115093750D03*
%TD*%
%TO.C,MX4*%
X151606250Y-96043750D03*
D13*
X146526250Y-96043750D03*
X156686250Y-96043750D03*
%TD*%
%TO.C,MX3*%
X137636250Y-134143750D03*
D12*
X132556250Y-134143750D03*
D13*
X127476250Y-134143750D03*
%TD*%
%TO.C,MX9*%
X175736250Y-134143750D03*
X165576250Y-134143750D03*
D12*
X170656250Y-134143750D03*
%TD*%
D13*
%TO.C,MX2*%
X137636250Y-115093750D03*
D12*
X132556250Y-115093750D03*
D13*
X127476250Y-115093750D03*
%TD*%
%TO.C,MX1*%
X137636250Y-96043750D03*
X127476250Y-96043750D03*
D12*
X132556250Y-96043750D03*
%TD*%
D14*
%TO.C,LED1*%
X126162500Y-108118750D03*
X124662500Y-108118750D03*
D15*
X124662500Y-103018750D03*
D14*
X126162500Y-103018750D03*
%TD*%
D16*
%TO.C,LED4*%
X163681250Y-140537500D03*
X163681250Y-142037500D03*
D17*
X158581250Y-142037500D03*
D16*
X158581250Y-140537500D03*
%TD*%
D14*
%TO.C,LED5*%
X177050000Y-122068750D03*
X178550000Y-122068750D03*
D18*
X178550000Y-127168750D03*
D14*
X177050000Y-127168750D03*
%TD*%
%TO.C,LED6*%
X177050000Y-103018750D03*
X178550000Y-103018750D03*
D18*
X178550000Y-108118750D03*
D14*
X177050000Y-108118750D03*
%TD*%
D16*
%TO.C,LED7*%
X173662500Y-70600000D03*
X173662500Y-69100000D03*
D19*
X178762500Y-69100000D03*
D16*
X178762500Y-70600000D03*
%TD*%
%TO.C,LED8*%
X159375000Y-70600000D03*
X159375000Y-69100000D03*
D19*
X164475000Y-69100000D03*
D16*
X164475000Y-70600000D03*
%TD*%
%TO.C,LED3*%
X144631250Y-140537500D03*
X144631250Y-142037500D03*
D17*
X139531250Y-142037500D03*
D16*
X139531250Y-140537500D03*
%TD*%
D14*
%TO.C,LED2*%
X126162500Y-127168750D03*
X124662500Y-127168750D03*
D15*
X124662500Y-122068750D03*
D14*
X126162500Y-122068750D03*
%TD*%
D20*
%TO.C,SW1*%
X170656250Y-71393750D03*
X170656250Y-82593750D03*
D21*
X163156250Y-74493750D03*
D22*
X163156250Y-79493750D03*
X163156250Y-76993750D03*
X177656250Y-79493750D03*
X177656250Y-74493750D03*
%TD*%
D23*
%TO.C,R2*%
X139700000Y-77787500D03*
D24*
X132080000Y-77787500D03*
%TD*%
D23*
%TO.C,R1*%
X139700000Y-75406250D03*
D24*
X132080000Y-75406250D03*
%TD*%
D25*
%TO.C,D1*%
X141287500Y-92075000D03*
D26*
X141287500Y-99695000D03*
%TD*%
D25*
%TO.C,D2*%
X141287500Y-111125000D03*
D26*
X141287500Y-118745000D03*
%TD*%
D25*
%TO.C,D3*%
X141287500Y-130175000D03*
D26*
X141287500Y-137795000D03*
%TD*%
D25*
%TO.C,D5*%
X160337500Y-111125000D03*
D26*
X160337500Y-118745000D03*
%TD*%
D25*
%TO.C,D7*%
X178593750Y-92075000D03*
D26*
X178593750Y-99695000D03*
%TD*%
D25*
%TO.C,D8*%
X178593750Y-111125000D03*
D26*
X178593750Y-118745000D03*
%TD*%
D25*
%TO.C,D9*%
X178593750Y-130175000D03*
D26*
X178593750Y-137795000D03*
%TD*%
D25*
%TO.C,D6*%
X160337500Y-130175000D03*
D26*
X160337500Y-137795000D03*
%TD*%
D23*
%TO.C,R3*%
X134143750Y-104775000D03*
D24*
X141763750Y-104775000D03*
%TD*%
D27*
%TO.C,H1*%
X142724000Y-88392000D03*
X140164000Y-87332000D03*
X141224000Y-89892000D03*
X141224000Y-86892000D03*
X142284000Y-89452000D03*
X142284000Y-87332000D03*
D28*
X141224000Y-88392000D03*
D27*
X140164000Y-89452000D03*
X139724000Y-88392000D03*
%TD*%
%TO.C,H3*%
X131056250Y-124618750D03*
X132556250Y-126118750D03*
X133616250Y-123558750D03*
X131496250Y-123558750D03*
D28*
X132556250Y-124618750D03*
D27*
X133616250Y-125678750D03*
X132556250Y-123118750D03*
X134056250Y-124618750D03*
X131496250Y-125678750D03*
%TD*%
%TO.C,H2*%
X175506250Y-85725000D03*
X178506250Y-85725000D03*
D28*
X177006250Y-85725000D03*
D27*
X177006250Y-87225000D03*
X178066250Y-84665000D03*
X175946250Y-84665000D03*
X177006250Y-84225000D03*
X178066250Y-86785000D03*
X175946250Y-86785000D03*
%TD*%
%TO.C,H4*%
X172156250Y-124618750D03*
X169596250Y-123558750D03*
X170656250Y-123118750D03*
D28*
X170656250Y-124618750D03*
D27*
X169156250Y-124618750D03*
X169596250Y-125678750D03*
X171716250Y-125678750D03*
X170656250Y-126118750D03*
X171716250Y-123558750D03*
%TD*%
D25*
%TO.C,D4*%
X160337500Y-92075000D03*
D26*
X160337500Y-99695000D03*
%TD*%
M02*
