%TF.GenerationSoftware,KiCad,Pcbnew,9.0.3*%
%TF.CreationDate,2025-07-17T06:47:07+08:00*%
%TF.ProjectId,bongopad,626f6e67-6f70-4616-942e-6b696361645f,v1.1*%
%TF.SameCoordinates,Original*%
%TF.FileFunction,Soldermask,Bot*%
%TF.FilePolarity,Negative*%
%FSLAX46Y46*%
G04 Gerber Fmt 4.6, Leading zero omitted, Abs format (unit mm)*
G04 Created by KiCad (PCBNEW 9.0.3) date 2025-07-17 06:47:07*
%MOMM*%
%LPD*%
G01*
G04 APERTURE LIST*
G04 Aperture macros list*
%AMHorizOval*
0 Thick line with rounded ends*
0 $1 width*
0 $2 $3 position (X,Y) of the first rounded end (center of the circle)*
0 $4 $5 position (X,Y) of the second rounded end (center of the circle)*
0 Add line between two ends*
20,1,$1,$2,$3,$4,$5,0*
0 Add two circle primitives to create the rounded ends*
1,1,$1,$2,$3*
1,1,$1,$4,$5*%
G04 Aperture macros list end*
%ADD10C,1.397000*%
%ADD11R,1.752600X1.752600*%
%ADD12C,1.752600*%
%ADD13C,3.987800*%
%ADD14C,1.750000*%
%ADD15HorizOval,2.250000X0.655001X0.730000X-0.655001X-0.730000X0*%
%ADD16C,2.250000*%
%ADD17HorizOval,2.250000X0.020000X0.290000X-0.020000X-0.290000X0*%
%ADD18R,3.200000X2.000000*%
%ADD19R,2.000000X2.000000*%
%ADD20C,2.000000*%
%ADD21C,1.400000*%
%ADD22O,1.400000X1.400000*%
%ADD23R,1.600000X1.600000*%
%ADD24O,1.600000X1.600000*%
%ADD25R,2.200000X2.200000*%
%ADD26C,0.500000*%
%ADD27C,4.000000*%
G04 APERTURE END LIST*
D10*
%TO.C,OL1*%
X160337500Y-80803750D03*
X160337500Y-78263750D03*
X160337500Y-75723750D03*
X160337500Y-73183750D03*
%TD*%
D11*
%TO.C,U1*%
X126523750Y-84842350D03*
D12*
X129063750Y-84385150D03*
X131603750Y-84842350D03*
X134143750Y-84385150D03*
X136683750Y-84842350D03*
X139223750Y-84385150D03*
X141763750Y-84842350D03*
X144303750Y-84385150D03*
X146843750Y-84842350D03*
X149383750Y-84385150D03*
X151923750Y-84842350D03*
X154463750Y-84385150D03*
X154463750Y-69602350D03*
X151923750Y-69145150D03*
X149383750Y-69602350D03*
X146843750Y-69145150D03*
X144303750Y-69602350D03*
X141763750Y-69145150D03*
X139223750Y-69602350D03*
X136683750Y-69145150D03*
X134143750Y-69602350D03*
X131603750Y-69145150D03*
X129063750Y-69602350D03*
X126523750Y-69145150D03*
%TD*%
D13*
%TO.C,MX8*%
X170656250Y-115093750D03*
D14*
X165576250Y-115093750D03*
X175736250Y-115093750D03*
D15*
X167501251Y-111823750D03*
D16*
X168156250Y-111093750D03*
D17*
X173176250Y-110303750D03*
D16*
X173196250Y-110013750D03*
%TD*%
D14*
%TO.C,MX7*%
X165576250Y-96043750D03*
X175736250Y-96043750D03*
D13*
X170656250Y-96043750D03*
D16*
X168156250Y-92043750D03*
D15*
X167501251Y-92773750D03*
D16*
X173196250Y-90963750D03*
D17*
X173176250Y-91253750D03*
%TD*%
D13*
%TO.C,MX6*%
X151606250Y-134143750D03*
D14*
X156686250Y-134143750D03*
X146526250Y-134143750D03*
D15*
X148451251Y-130873750D03*
D16*
X149106250Y-130143750D03*
X154146250Y-129063750D03*
D17*
X154126250Y-129353750D03*
%TD*%
D14*
%TO.C,MX5*%
X146526250Y-115093750D03*
X156686250Y-115093750D03*
D13*
X151606250Y-115093750D03*
D15*
X148451251Y-111823750D03*
D16*
X149106250Y-111093750D03*
X154146250Y-110013750D03*
D17*
X154126250Y-110303750D03*
%TD*%
D13*
%TO.C,MX4*%
X151606250Y-96043750D03*
D14*
X146526250Y-96043750D03*
X156686250Y-96043750D03*
D15*
X148451251Y-92773750D03*
D16*
X149106250Y-92043750D03*
X154146250Y-90963750D03*
D17*
X154126250Y-91253750D03*
%TD*%
D14*
%TO.C,MX3*%
X137636250Y-134143750D03*
D13*
X132556250Y-134143750D03*
D14*
X127476250Y-134143750D03*
D15*
X129401251Y-130873750D03*
D16*
X130056250Y-130143750D03*
X135096250Y-129063750D03*
D17*
X135076250Y-129353750D03*
%TD*%
D14*
%TO.C,MX9*%
X175736250Y-134143750D03*
X165576250Y-134143750D03*
D13*
X170656250Y-134143750D03*
D15*
X167501251Y-130873750D03*
D16*
X168156250Y-130143750D03*
D17*
X173176250Y-129353750D03*
D16*
X173196250Y-129063750D03*
%TD*%
D14*
%TO.C,MX2*%
X137636250Y-115093750D03*
D13*
X132556250Y-115093750D03*
D14*
X127476250Y-115093750D03*
D16*
X130056250Y-111093750D03*
D15*
X129401251Y-111823750D03*
D16*
X135096250Y-110013750D03*
D17*
X135076250Y-110303750D03*
%TD*%
D14*
%TO.C,MX1*%
X137636250Y-96043750D03*
X127476250Y-96043750D03*
D13*
X132556250Y-96043750D03*
D16*
X130056250Y-92043750D03*
D15*
X129401251Y-92773750D03*
D17*
X135076250Y-91253750D03*
D16*
X135096250Y-90963750D03*
%TD*%
D18*
%TO.C,SW1*%
X170656250Y-71393750D03*
X170656250Y-82593750D03*
D19*
X163156250Y-74493750D03*
D20*
X163156250Y-79493750D03*
X163156250Y-76993750D03*
X177656250Y-79493750D03*
X177656250Y-74493750D03*
%TD*%
D21*
%TO.C,R2*%
X139700000Y-77787500D03*
D22*
X132080000Y-77787500D03*
%TD*%
D21*
%TO.C,R1*%
X139700000Y-75406250D03*
D22*
X132080000Y-75406250D03*
%TD*%
D23*
%TO.C,D1*%
X141287500Y-92075000D03*
D24*
X141287500Y-99695000D03*
%TD*%
D23*
%TO.C,D2*%
X141287500Y-111125000D03*
D24*
X141287500Y-118745000D03*
%TD*%
D23*
%TO.C,D3*%
X141287500Y-130175000D03*
D24*
X141287500Y-137795000D03*
%TD*%
D23*
%TO.C,D5*%
X160337500Y-111125000D03*
D24*
X160337500Y-118745000D03*
%TD*%
D23*
%TO.C,D7*%
X178593750Y-92075000D03*
D24*
X178593750Y-99695000D03*
%TD*%
D23*
%TO.C,D8*%
X178593750Y-111125000D03*
D24*
X178593750Y-118745000D03*
%TD*%
D23*
%TO.C,D9*%
X178593750Y-130175000D03*
D24*
X178593750Y-137795000D03*
%TD*%
D23*
%TO.C,D6*%
X160337500Y-130175000D03*
D24*
X160337500Y-137795000D03*
%TD*%
D25*
%TO.C,LS1*%
X160187500Y-84931250D03*
X173187500Y-84931250D03*
%TD*%
D21*
%TO.C,R3*%
X134143750Y-104775000D03*
D22*
X141763750Y-104775000D03*
%TD*%
D26*
%TO.C,H1*%
X142724000Y-88392000D03*
X140164000Y-87332000D03*
X141224000Y-89892000D03*
X141224000Y-86892000D03*
X142284000Y-89452000D03*
X142284000Y-87332000D03*
D27*
X141224000Y-88392000D03*
D26*
X140164000Y-89452000D03*
X139724000Y-88392000D03*
%TD*%
%TO.C,H3*%
X131056250Y-124618750D03*
X132556250Y-126118750D03*
X133616250Y-123558750D03*
X131496250Y-123558750D03*
D27*
X132556250Y-124618750D03*
D26*
X133616250Y-125678750D03*
X132556250Y-123118750D03*
X134056250Y-124618750D03*
X131496250Y-125678750D03*
%TD*%
%TO.C,H2*%
X175506250Y-85725000D03*
X178506250Y-85725000D03*
D27*
X177006250Y-85725000D03*
D26*
X177006250Y-87225000D03*
X178066250Y-84665000D03*
X175946250Y-84665000D03*
X177006250Y-84225000D03*
X178066250Y-86785000D03*
X175946250Y-86785000D03*
%TD*%
%TO.C,H4*%
X172156250Y-124618750D03*
X169596250Y-123558750D03*
X170656250Y-123118750D03*
D27*
X170656250Y-124618750D03*
D26*
X169156250Y-124618750D03*
X169596250Y-125678750D03*
X171716250Y-125678750D03*
X170656250Y-126118750D03*
X171716250Y-123558750D03*
%TD*%
D23*
%TO.C,D4*%
X160337500Y-92075000D03*
D24*
X160337500Y-99695000D03*
%TD*%
M02*
