%TF.GenerationSoftware,KiCad,Pcbnew,9.0.3*%
%TF.CreationDate,2025-07-17T06:47:07+08:00*%
%TF.ProjectId,bongopad,626f6e67-6f70-4616-942e-6b696361645f,v1.1*%
%TF.SameCoordinates,Original*%
%TF.FileFunction,Profile,NP*%
%FSLAX46Y46*%
G04 Gerber Fmt 4.6, Leading zero omitted, Abs format (unit mm)*
G04 Created by KiCad (PCBNEW 9.0.3) date 2025-07-17 06:47:07*
%MOMM*%
%LPD*%
G01*
G04 APERTURE LIST*
%TA.AperFunction,Profile*%
%ADD10C,0.050000*%
%TD*%
%TA.AperFunction,Profile*%
%ADD11C,0.120000*%
%TD*%
G04 APERTURE END LIST*
D10*
X125412500Y-143668750D02*
X177800000Y-143668750D01*
X125412500Y-67468750D02*
X177800000Y-67468750D01*
X180181250Y-141287500D02*
G75*
G02*
X177800000Y-143668750I-2381250J0D01*
G01*
X123031250Y-69850000D02*
G75*
G02*
X125412500Y-67468750I2381250J0D01*
G01*
X180181250Y-141287500D02*
X180181250Y-69850000D01*
X123031250Y-141287500D02*
X123031250Y-69850000D01*
X177800000Y-67468750D02*
G75*
G02*
X180181250Y-69850000I0J-2381250D01*
G01*
X125412500Y-143668750D02*
G75*
G02*
X123031250Y-141287500I0J2381250D01*
G01*
D11*
%TO.C,LED1*%
X126912500Y-107268750D02*
X123912500Y-107268750D01*
X126912500Y-103868750D02*
X126912500Y-107268750D01*
X123912500Y-107268750D02*
X123912500Y-103868750D01*
X123912500Y-103868750D02*
X126912500Y-103868750D01*
%TO.C,LED4*%
X162831250Y-142787500D02*
X159431250Y-142787500D01*
X159431250Y-139787500D02*
X162831250Y-139787500D01*
X159431250Y-142787500D02*
X159431250Y-139787500D01*
X162831250Y-139787500D02*
X162831250Y-142787500D01*
%TO.C,LED5*%
X176300000Y-126318750D02*
X176300000Y-122918750D01*
X176300000Y-122918750D02*
X179300000Y-122918750D01*
X179300000Y-122918750D02*
X179300000Y-126318750D01*
X179300000Y-126318750D02*
X176300000Y-126318750D01*
%TO.C,LED6*%
X179300000Y-103868750D02*
X179300000Y-107268750D01*
X176300000Y-107268750D02*
X176300000Y-103868750D01*
X179300000Y-107268750D02*
X176300000Y-107268750D01*
X176300000Y-103868750D02*
X179300000Y-103868750D01*
%TO.C,LED7*%
X174512500Y-68350000D02*
X177912500Y-68350000D01*
X174512500Y-71350000D02*
X174512500Y-68350000D01*
X177912500Y-71350000D02*
X174512500Y-71350000D01*
X177912500Y-68350000D02*
X177912500Y-71350000D01*
%TO.C,LED8*%
X160225000Y-71350000D02*
X160225000Y-68350000D01*
X163625000Y-71350000D02*
X160225000Y-71350000D01*
X160225000Y-68350000D02*
X163625000Y-68350000D01*
X163625000Y-68350000D02*
X163625000Y-71350000D01*
%TO.C,LED3*%
X140381250Y-142787500D02*
X140381250Y-139787500D01*
X140381250Y-139787500D02*
X143781250Y-139787500D01*
X143781250Y-142787500D02*
X140381250Y-142787500D01*
X143781250Y-139787500D02*
X143781250Y-142787500D01*
%TO.C,LED2*%
X126912500Y-122918750D02*
X126912500Y-126318750D01*
X123912500Y-126318750D02*
X123912500Y-122918750D01*
X126912500Y-126318750D02*
X123912500Y-126318750D01*
X123912500Y-122918750D02*
X126912500Y-122918750D01*
%TD*%
M02*
